<svg id="Camada_1" data-name="Camada 1" xmlns="http://www.w3.org/2000/svg" viewBox="0 0 1139.71 352.48"><defs><style>.cls-1{fill:#211915;}.cls-2{fill:#98691f;}.cls-3{fill:none;stroke:#fff;stroke-miterlimit:10;stroke-width:8px;}</style></defs><path class="cls-1" d="M281.5,1164.35v125H228.28q-5.13-24.4-10.87-38.08t-14-22a53.74,53.74,0,0,0-23.2-13.55q-13.67-4-44.19-4H83v92H96q22.71,0,31.86-11t9.16-39.06v-2.93h42v153.07H137q-1-35.14-9.16-45.65t-31.37-10.5H83v104.49h59.32q34.42,0,47.49-4.15T210,1433.88q7.82-12,12.33-29.17t6-43.34h55.17V1499.8h-354v-47.61H-53.7q16.59,0,21.85-3.9t5.25-22.46V1240.28q0-19.53-4.89-24t-22.7-4.51H-70.55v-47.37Z" transform="translate(104.55 -1160.35)"/><path class="cls-1" d="M351.33,1231.73q0-14.4-4.64-18.92t-18.8-4.51h-11v-44H449.71v268.07q0,14.64,4.52,19t18.68,4.4h7.81v43.94H316.9v-43.94h11q14.16,0,18.8-4.52t4.64-18.92Z" transform="translate(104.55 -1160.35)"/><path class="cls-1" d="M758.8,1417.77q-8.55,45.9-39.55,68.48t-85.45,22.58q-62.26,0-98.39-34.18t-36.14-92.77q0-58.1,36.26-92.65t97.29-34.55q60.3,0,92.65,34.3t32.35,98.27v8.55h-157v4.88q0,29.79,12.45,45.65t35.4,15.87q19.53,0,32-11.47t16.6-33Zm-158-65.92h72.51v-3.66q0-23.45-9.52-36.13t-27.1-12.7q-17.1,0-26.49,13.67T600.84,1351.85Z" transform="translate(104.55 -1160.35)"/><path class="cls-1" d="M821.79,1503.22H786.63v-86.43h44.19q7.81,22.95,24.78,34.43t43.09,11.47q17.32,0,25.15-4.76t7.81-15q0-13.68-39.06-25.15-13.19-3.9-20.76-6.35-56.64-18.06-73.36-33.93t-16.72-43.22q0-36.37,30.15-58t81.91-21.61a207.88,207.88,0,0,1,44.43,4.64,204.22,204.22,0,0,1,41.5,13.92l7.08-13.92h36.87v74.47H984.63a70.32,70.32,0,0,0-27.59-27q-17.34-9.4-38.82-9.4-14.9,0-23.44,4.76t-8.54,13.06q0,15.13,37.35,26.37,9.52,2.93,14.89,4.64c3.09,1,7.41,2.28,12.94,3.9q40.29,12.45,57.87,24.17a54.78,54.78,0,0,1,19.16,22.22,70.93,70.93,0,0,1,6.71,31.25q0,37.6-29.29,59.08t-80.57,21.49a211.14,211.14,0,0,1-51.63-6.11q-24.3-6.09-42.85-17.33Z" transform="translate(104.55 -1160.35)"/><path class="cls-2" d="M251.5,1164.35v125H198.28q-5.13-24.4-10.87-38.08t-14-22a53.74,53.74,0,0,0-23.2-13.55q-13.67-4-44.19-4H53v92H66q22.71,0,31.86-11t9.16-39.06v-2.93h42v153.07H107q-1-35.14-9.16-45.65t-31.37-10.5H53v104.49h59.32q34.42,0,47.49-4.15T180,1433.88q7.82-12,12.33-29.17t6-43.34h55.17V1499.8h-354v-47.61H-83.7q16.59,0,21.85-3.9t5.25-22.46V1240.28q0-19.53-4.89-24t-22.7-4.51h-16.36v-47.37Z" transform="translate(104.55 -1160.35)"/><path class="cls-2" d="M321.33,1231.73q0-14.4-4.64-18.92t-18.8-4.51h-11v-44H419.71v268.07q0,14.64,4.52,19t18.68,4.4h7.81v43.94H286.9v-43.94h11q14.16,0,18.8-4.52t4.64-18.92Z" transform="translate(104.55 -1160.35)"/><path class="cls-2" d="M728.8,1417.77q-8.55,45.9-39.55,68.48t-85.45,22.58q-62.26,0-98.39-34.18t-36.14-92.77q0-58.1,36.26-92.65t97.29-34.55q60.3,0,92.65,34.3t32.35,98.27v8.55h-157v4.88q0,29.79,12.45,45.65t35.4,15.87q19.53,0,32-11.47t16.6-33Zm-158-65.92h72.51v-3.66q0-23.45-9.52-36.13t-27.1-12.7q-17.1,0-26.49,13.67T570.84,1351.85Z" transform="translate(104.55 -1160.35)"/><path class="cls-2" d="M791.79,1503.22H756.63v-86.43h44.19q7.81,22.95,24.78,34.43t43.09,11.47q17.32,0,25.15-4.76t7.81-15q0-13.68-39.06-25.15-13.19-3.9-20.76-6.35-56.64-18.06-73.36-33.93t-16.72-43.22q0-36.37,30.15-58t81.91-21.61a207.88,207.88,0,0,1,44.43,4.64,204.22,204.22,0,0,1,41.5,13.92l7.08-13.92h36.87v74.47H954.63a70.32,70.32,0,0,0-27.59-27q-17.34-9.4-38.82-9.4-14.9,0-23.44,4.76t-8.54,13.06q0,15.13,37.35,26.37,9.52,2.93,14.89,4.64c3.09,1,7.41,2.28,12.94,3.9q40.29,12.45,57.87,24.17a54.78,54.78,0,0,1,19.16,22.22,70.93,70.93,0,0,1,6.71,31.25q0,37.6-29.29,59.08t-80.57,21.49a211.14,211.14,0,0,1-51.63-6.11q-24.3-6.09-42.85-17.33Z" transform="translate(104.55 -1160.35)"/><path class="cls-3" d="M251.5,1164.35v125H198.28q-5.13-24.4-10.87-38.08t-14-22a53.74,53.74,0,0,0-23.2-13.55q-13.67-4-44.19-4H53v92H66q22.71,0,31.86-11t9.16-39.06v-2.93h42v153.07H107q-1-35.14-9.16-45.65t-31.37-10.5H53v104.49h59.32q34.42,0,47.49-4.15T180,1433.88q7.82-12,12.33-29.17t6-43.34h55.17V1499.8h-354v-47.61H-83.7q16.59,0,21.85-3.9t5.25-22.46V1240.28q0-19.53-4.89-24t-22.7-4.51h-16.36v-47.37Z" transform="translate(104.55 -1160.35)"/><path class="cls-3" d="M321.33,1231.73q0-14.4-4.64-18.92t-18.8-4.51h-11v-44H419.71v268.07q0,14.64,4.52,19t18.68,4.4h7.81v43.94H286.9v-43.94h11q14.16,0,18.8-4.52t4.64-18.92Z" transform="translate(104.55 -1160.35)"/><path class="cls-3" d="M728.8,1417.77q-8.55,45.9-39.55,68.48t-85.45,22.58q-62.26,0-98.39-34.18t-36.14-92.77q0-58.1,36.26-92.65t97.29-34.55q60.3,0,92.65,34.3t32.35,98.27v8.55h-157v4.88q0,29.79,12.45,45.65t35.4,15.87q19.53,0,32-11.47t16.6-33Zm-158-65.92h72.51v-3.66q0-23.45-9.52-36.13t-27.1-12.7q-17.1,0-26.49,13.67T570.84,1351.85Z" transform="translate(104.55 -1160.35)"/><path class="cls-3" d="M791.79,1503.22H756.63v-86.43h44.19q7.81,22.95,24.78,34.43t43.09,11.47q17.32,0,25.15-4.76t7.81-15q0-13.68-39.06-25.15-13.19-3.9-20.76-6.35-56.64-18.06-73.36-33.93t-16.72-43.22q0-36.37,30.15-58t81.91-21.61a207.88,207.88,0,0,1,44.43,4.64,204.22,204.22,0,0,1,41.5,13.92l7.08-13.92h36.87v74.47H954.63a70.32,70.32,0,0,0-27.59-27q-17.34-9.4-38.82-9.4-14.9,0-23.44,4.76t-8.54,13.06q0,15.13,37.35,26.37,9.52,2.93,14.89,4.64c3.09,1,7.41,2.28,12.94,3.9q40.29,12.45,57.87,24.17a54.78,54.78,0,0,1,19.16,22.22,70.93,70.93,0,0,1,6.71,31.25q0,37.6-29.29,59.08t-80.57,21.49a211.14,211.14,0,0,1-51.63-6.11q-24.3-6.09-42.85-17.33Z" transform="translate(104.55 -1160.35)"/></svg>