<svg id="Camada_1" data-name="Camada 1" xmlns="http://www.w3.org/2000/svg" viewBox="0 0 1005.96 351.99"><defs><style>.cls-1{fill:#211915;stroke:#211915;}.cls-1,.cls-3{stroke-miterlimit:10;}.cls-2{fill:#98691f;}.cls-3{fill:none;stroke:#fff;stroke-width:8px;}</style></defs><path class="cls-1" d="M337.82,1249.51h19q17.08,0,22.34,4.16t5.25,24.41V1428L260.91,1202.15H94.9v47.36h16.35q18.07,0,23.08,4.77t5,23.8v183.1q0,19.29-5.13,24T111.25,1490H94.9v47.61h148V1490H228q-17.58,0-22.58-4.64t-5-24.17V1297.12L330.74,1537.6h115V1278.08q0-19.53,5-24t22.58-4.52h12v-47.36H337.82Z" transform="translate(-59.9 -1198.15)"/><path class="cls-1" d="M752.73,1326.66q-38.7-34.17-105.34-34.18t-104.62,33.94q-38,33.93-38,93.26,0,59.08,38,92.77t105.11,33.7q66.64,0,105.1-33.94t38.45-92.53Q791.43,1360.85,752.73,1326.66Zm-76.17,156.13q-8.17,17.22-28.2,17.21-20.75,0-29.17-17.33t-8.42-63q0-45.65,8.3-63.11t28.32-17.46q20.5,0,28.93,17.46t8.42,63.11Q684.74,1465.58,676.56,1482.79Z" transform="translate(-59.9 -1198.15)"/><path class="cls-1" d="M648.05,1243.76q8.22-4.17,11.9-8.5a14.71,14.71,0,0,0,3.67-9.8,16.18,16.18,0,0,0-4.68-11.82,15.79,15.79,0,0,0-11.75-4.76,21,21,0,0,0-11,3.1q-5.19,3.11-13,11.46l-42.52,45.12h17.44Z" transform="translate(-59.9 -1198.15)"/><path class="cls-1" d="M1058.64,1434.33a54.78,54.78,0,0,0-19.16-22.22q-17.58-11.71-57.86-24.17c-5.54-1.62-9.85-2.93-12.94-3.9q-5.38-1.71-14.9-4.64-37.35-11.24-37.35-26.37,0-8.29,8.54-13.06t23.44-4.76q21.48,0,38.82,9.4a70.36,70.36,0,0,1,27.59,27h39.06v-74.46H1017l-7.08,13.92a204.51,204.51,0,0,0-41.51-13.92,207.88,207.88,0,0,0-44.43-4.64q-51.76,0-81.91,21.61t-30.15,58q0,27.35,16.72,43.22T902,1449.22q7.56,2.44,20.75,6.35,39.06,11.48,39.06,25.15,0,10.24-7.81,15t-25.15,4.76q-26.13,0-43.09-11.47T861,1454.59H816.82V1541H852l9-18.31q18.56,11.24,42.85,17.33a211.14,211.14,0,0,0,51.63,6.11q51.27,0,80.57-21.49t29.3-59.08A70.94,70.94,0,0,0,1058.64,1434.33Z" transform="translate(-59.9 -1198.15)"/><path class="cls-2" d="M306.82,1249.51h19q17.08,0,22.34,4.16t5.25,24.41V1428L229.91,1202.15H63.9v47.36H80.25q18.07,0,23.08,4.77t5,23.8v183.1q0,19.29-5.13,24t-23,4.76H63.9v47.61h148V1490H197q-17.58,0-22.58-4.64t-5-24.17V1297.12L299.74,1537.6h115V1278.08q0-19.53,5-24t22.58-4.52h12v-47.36H306.82Z" transform="translate(-59.9 -1198.15)"/><path class="cls-2" d="M721.73,1326.66q-38.7-34.17-105.34-34.18t-104.62,33.94q-38,33.93-38,93.26,0,59.08,38,92.77t105.11,33.7q66.64,0,105.1-33.94t38.45-92.53Q760.43,1360.85,721.73,1326.66Zm-76.17,156.13q-8.17,17.22-28.2,17.21-20.75,0-29.17-17.33t-8.42-63q0-45.65,8.3-63.11t28.32-17.46q20.5,0,28.93,17.46t8.42,63.11Q653.74,1465.58,645.56,1482.79Z" transform="translate(-59.9 -1198.15)"/><path class="cls-2" d="M629.75,1243.76q8.22-4.17,11.89-8.5a14.72,14.72,0,0,0,3.68-9.8,16.15,16.15,0,0,0-4.69-11.82,15.77,15.77,0,0,0-11.74-4.76,21,21,0,0,0-11,3.1q-5.19,3.11-13,11.46l-42.53,45.12h17.44Z" transform="translate(-59.9 -1198.15)"/><path class="cls-2" d="M1027.64,1434.33a54.78,54.78,0,0,0-19.16-22.22q-17.58-11.71-57.86-24.17c-5.54-1.62-9.85-2.93-12.94-3.9q-5.38-1.71-14.9-4.64-37.35-11.24-37.35-26.37,0-8.29,8.54-13.06t23.44-4.76q21.48,0,38.82,9.4a70.36,70.36,0,0,1,27.59,27h39.06v-74.46H986L978.94,1311a204.51,204.51,0,0,0-41.51-13.92,207.88,207.88,0,0,0-44.43-4.64q-51.76,0-81.91,21.61t-30.15,58q0,27.35,16.72,43.22T871,1449.22q7.56,2.44,20.75,6.35,39.06,11.48,39.06,25.15,0,10.24-7.81,15t-25.15,4.76q-26.13,0-43.09-11.47T830,1454.59H785.82V1541H821l9-18.31q18.56,11.24,42.85,17.33a211.14,211.14,0,0,0,51.63,6.11q51.27,0,80.57-21.49t29.3-59.08A70.94,70.94,0,0,0,1027.64,1434.33Z" transform="translate(-59.9 -1198.15)"/><path class="cls-3" d="M306.82,1249.51h19q17.08,0,22.34,4.16t5.25,24.41V1428L229.91,1202.15H63.9v47.36H80.25q18.07,0,23.08,4.77t5,23.8v183.1q0,19.29-5.13,24t-23,4.76H63.9v47.61h148V1490H197q-17.58,0-22.58-4.64t-5-24.17V1297.12L299.74,1537.6h115V1278.08q0-19.53,5-24t22.58-4.52h12v-47.36H306.82Z" transform="translate(-59.9 -1198.15)"/><path class="cls-3" d="M721.73,1326.66q-38.7-34.17-105.34-34.18t-104.62,33.94q-38,33.93-38,93.26,0,59.08,38,92.77t105.11,33.7q66.64,0,105.1-33.94t38.45-92.53Q760.43,1360.85,721.73,1326.66Zm-76.17,156.13q-8.17,17.22-28.2,17.21-20.75,0-29.17-17.33t-8.42-63q0-45.65,8.3-63.11t28.32-17.46q20.5,0,28.93,17.46t8.42,63.11Q653.74,1465.58,645.56,1482.79Z" transform="translate(-59.9 -1198.15)"/><path class="cls-3" d="M629.75,1243.76q8.22-4.17,11.89-8.5a14.72,14.72,0,0,0,3.68-9.8,16.15,16.15,0,0,0-4.69-11.82,15.77,15.77,0,0,0-11.74-4.76,21,21,0,0,0-11,3.1q-5.19,3.11-13,11.46l-42.53,45.12h17.44Z" transform="translate(-59.9 -1198.15)"/><path class="cls-3" d="M1027.64,1434.33a54.78,54.78,0,0,0-19.16-22.22q-17.58-11.71-57.86-24.17c-5.54-1.62-9.85-2.93-12.94-3.9q-5.38-1.71-14.9-4.64-37.35-11.24-37.35-26.37,0-8.29,8.54-13.06t23.44-4.76q21.48,0,38.82,9.4a70.36,70.36,0,0,1,27.59,27h39.06v-74.46H986L978.94,1311a204.51,204.51,0,0,0-41.51-13.92,207.88,207.88,0,0,0-44.43-4.64q-51.76,0-81.91,21.61t-30.15,58q0,27.35,16.72,43.22T871,1449.22q7.56,2.44,20.75,6.35,39.06,11.48,39.06,25.15,0,10.24-7.81,15t-25.15,4.76q-26.13,0-43.09-11.47T830,1454.59H785.82V1541H821l9-18.31q18.56,11.24,42.85,17.33a211.14,211.14,0,0,0,51.63,6.11q51.27,0,80.57-21.49t29.3-59.08A70.94,70.94,0,0,0,1027.64,1434.33Z" transform="translate(-59.9 -1198.15)"/></svg>