<svg id="Camada_1" data-name="Camada 1" xmlns="http://www.w3.org/2000/svg" viewBox="0 0 1026.46 434.66"><defs><style>.cls-1{fill:#211915;stroke:#211915;stroke-width:26px;}.cls-1,.cls-3{stroke-miterlimit:10;}.cls-2{fill:#98691f;}.cls-3{fill:none;stroke:#fff;stroke-width:8px;}</style></defs><path class="cls-1" d="M469.28,1187.15H291.82v77.36h34a62.58,62.58,0,0,1,11.69.84,68.51,68.51,0,0,1,.9,12.73v91.22L238.8,1187.15H48.9v77.36H80.25a58,58,0,0,1,12.1,1,60.23,60.23,0,0,1,1,12.62v183.1c0,7-.57,10.9-1,12.84a55.8,55.8,0,0,1-12.06,1H48.9v77.61h178V1475H197a56.89,56.89,0,0,1-11.62-.89,64.75,64.75,0,0,1-1-12.92V1356.26L290.81,1552.6H429.73V1278.08a65.63,65.63,0,0,1,.92-12.7,60.24,60.24,0,0,1,11.66-.87h27Z" transform="translate(-35.9 -1139.48)"/><path class="cls-1" d="M1041.15,1427.81a69.87,69.87,0,0,0-24.35-28.18,153.82,153.82,0,0,0-25.27-13.05h46.35V1282.12H976.82l-4.94,9.7a217.2,217.2,0,0,0-31.25-9.35,223.72,223.72,0,0,0-47.63-5c-37.55,0-68,8.22-90.65,24.42-22.25,15.94-34.39,37.23-36.17,63.35a124.21,124.21,0,0,0-34.52-49.83c-28.5-25.17-67.28-37.94-115.27-37.94-3,0-6,0-9,.15l75.84-37.69c11.16-5.68,19.26-11.59,24.77-18.06a39.68,39.68,0,0,0,9.79-26.32A42.61,42.61,0,0,0,705.56,1165,42,42,0,0,0,675,1152.48a50.57,50.57,0,0,0-26.25,7.38c-7.15,4.27-15.41,11.48-25.19,22l-95.86,101.71h35.69c-24.17,6.06-44.78,16.65-61.59,31.68-28.52,25.48-43,60.62-43,104.44s14.47,78.67,43,104c28,24.87,66.72,37.48,115.06,37.48,48,0,86.69-12.69,115-37.69a124.07,124.07,0,0,0,38.92-64.32V1556H830.3l6.33-12.83a182.25,182.25,0,0,0,32.57,11.4,227.37,227.37,0,0,0,55.29,6.56c37.28,0,67.37-8.21,89.44-24.39,23.51-17.24,35.43-41.19,35.43-71.18A86.11,86.11,0,0,0,1041.15,1427.81ZM632,1476.35c-2.46,5.19-5.9,8.65-14.65,8.65-10,0-13.44-4.27-15.68-8.89-2.58-5.31-6.91-19.71-6.91-56.43,0-34.94,3.72-50.1,6.84-56.67,3-6.4,7.19-8.9,14.78-8.9,7.87,0,12.34,2.6,15.42,9,3.16,6.55,6.93,21.69,6.93,56.59C638.74,1456.67,634.53,1471.07,632,1476.35Zm142.32-36.76a176.21,176.21,0,0,0,1.1-19.91c0-3.07-.08-6.09-.23-9.08a66,66,0,0,0,12.13,15.57q7.06,6.7,19.37,13.42Zm141.27,43.05a1.79,1.79,0,0,1-.38.28c-.7.43-4.85,2.57-17.34,2.57-14.29,0-26-3-34.69-8.9-6.81-4.6-12.11-11-16.1-19.6q9,3.23,19.33,6.51c5.15,1.66,12.25,3.83,21.13,6.46,19.8,5.82,26.28,10.54,28.16,12.3A2.18,2.18,0,0,1,915.6,1482.64Zm39.44-109-.2-.06c-5.31-1.56-9.57-2.84-12.63-3.81-3.86-1.23-9.05-2.84-15.11-4.71-17.5-5.26-23.82-9.87-25.92-11.91l.1,0c2.34-1.3,7-2.86,16.13-2.86,11.89,0,22.25,2.48,31.67,7.58a55,55,0,0,1,21.5,20.88Q963.26,1376.15,955,1373.61Z" transform="translate(-35.9 -1139.48)"/><path class="cls-2" d="M306.82,1249.51h19q17.08,0,22.34,4.16t5.25,24.41V1428L229.91,1202.15H63.9v47.36H80.25q18.07,0,23.08,4.77t5,23.8v183.1q0,19.29-5.13,24t-23,4.76H63.9v47.61h148V1490H197q-17.58,0-22.58-4.64t-5-24.17V1297.12L299.74,1537.6h115V1278.08q0-19.53,5-24t22.58-4.52h12v-47.36H306.82Z" transform="translate(-35.9 -1139.48)"/><path class="cls-2" d="M721.73,1326.66q-38.7-34.17-105.34-34.18t-104.62,33.94q-38,33.93-38,93.26,0,59.08,38,92.77t105.11,33.7q66.64,0,105.1-33.94t38.45-92.53Q760.43,1360.85,721.73,1326.66Zm-76.17,156.13q-8.17,17.22-28.2,17.21-20.75,0-29.17-17.33t-8.42-63q0-45.65,8.3-63.11t28.32-17.46q20.5,0,28.93,17.46t8.42,63.11Q653.74,1465.58,645.56,1482.79Z" transform="translate(-35.9 -1139.48)"/><path class="cls-2" d="M676.45,1226.57q13.9-7.08,20.14-14.41a24.92,24.92,0,0,0,6.22-16.6,27.4,27.4,0,0,0-7.93-20,26.8,26.8,0,0,0-19.9-8.06,35.61,35.61,0,0,0-18.55,5.25q-8.79,5.25-22,19.41l-72,76.42H592Z" transform="translate(-35.9 -1139.48)"/><path class="cls-2" d="M1027.64,1434.33a54.78,54.78,0,0,0-19.16-22.22q-17.58-11.71-57.86-24.17c-5.54-1.62-9.85-2.93-12.94-3.9q-5.38-1.71-14.9-4.64-37.35-11.24-37.35-26.37,0-8.29,8.54-13.06t23.44-4.76q21.48,0,38.82,9.4a70.36,70.36,0,0,1,27.59,27h39.06v-74.46H986L978.94,1311a204.51,204.51,0,0,0-41.51-13.92,207.88,207.88,0,0,0-44.43-4.64q-51.76,0-81.91,21.61t-30.15,58q0,27.35,16.72,43.22T871,1449.22q7.56,2.44,20.75,6.35,39.06,11.48,39.06,25.15,0,10.24-7.81,15t-25.15,4.76q-26.13,0-43.09-11.47T830,1454.59H785.82V1541H821l9-18.31q18.56,11.24,42.85,17.33a211.14,211.14,0,0,0,51.63,6.11q51.27,0,80.57-21.49t29.3-59.08A70.94,70.94,0,0,0,1027.64,1434.33Z" transform="translate(-35.9 -1139.48)"/><path class="cls-3" d="M306.82,1249.51h19q17.08,0,22.34,4.16t5.25,24.41V1428L229.91,1202.15H63.9v47.36H80.25q18.07,0,23.08,4.77t5,23.8v183.1q0,19.29-5.13,24t-23,4.76H63.9v47.61h148V1490H197q-17.58,0-22.58-4.64t-5-24.17V1297.12L299.74,1537.6h115V1278.08q0-19.53,5-24t22.58-4.52h12v-47.36H306.82Z" transform="translate(-35.9 -1139.48)"/><path class="cls-3" d="M721.73,1326.66q-38.7-34.17-105.34-34.18t-104.62,33.94q-38,33.93-38,93.26,0,59.08,38,92.77t105.11,33.7q66.64,0,105.1-33.94t38.45-92.53Q760.43,1360.85,721.73,1326.66Zm-76.17,156.13q-8.17,17.22-28.2,17.21-20.75,0-29.17-17.33t-8.42-63q0-45.65,8.3-63.11t28.32-17.46q20.5,0,28.93,17.46t8.42,63.11Q653.74,1465.58,645.56,1482.79Z" transform="translate(-35.9 -1139.48)"/><path class="cls-3" d="M676.45,1226.57q13.9-7.08,20.14-14.41a24.92,24.92,0,0,0,6.22-16.6,27.4,27.4,0,0,0-7.93-20,26.8,26.8,0,0,0-19.9-8.06,35.61,35.61,0,0,0-18.55,5.25q-8.79,5.25-22,19.41l-72,76.42H592Z" transform="translate(-35.9 -1139.48)"/><path class="cls-3" d="M1027.64,1434.33a54.78,54.78,0,0,0-19.16-22.22q-17.58-11.71-57.86-24.17c-5.54-1.62-9.85-2.93-12.94-3.9q-5.38-1.71-14.9-4.64-37.35-11.24-37.35-26.37,0-8.29,8.54-13.06t23.44-4.76q21.48,0,38.82,9.4a70.36,70.36,0,0,1,27.59,27h39.06v-74.46H986L978.94,1311a204.51,204.51,0,0,0-41.51-13.92,207.88,207.88,0,0,0-44.43-4.64q-51.76,0-81.91,21.61t-30.15,58q0,27.35,16.72,43.22T871,1449.22q7.56,2.44,20.75,6.35,39.06,11.48,39.06,25.15,0,10.24-7.81,15t-25.15,4.76q-26.13,0-43.09-11.47T830,1454.59H785.82V1541H821l9-18.31q18.56,11.24,42.85,17.33a211.14,211.14,0,0,0,51.63,6.11q51.27,0,80.57-21.49t29.3-59.08A70.94,70.94,0,0,0,1027.64,1434.33Z" transform="translate(-35.9 -1139.48)"/></svg>