<svg id="Camada_1" data-name="Camada 1" xmlns="http://www.w3.org/2000/svg" xmlns:xlink="http://www.w3.org/1999/xlink" viewBox="0 0 921.43 441.06"><defs><style>.cls-1{fill:#211915;stroke:#211915;stroke-width:24px;}.cls-1,.cls-6{stroke-miterlimit:10;}.cls-2{fill:url(#Gradiente_sem_nome_2);}.cls-3{fill:url(#Gradiente_sem_nome_2-2);}.cls-4{fill:url(#Gradiente_sem_nome_3);}.cls-5{fill:url(#Gradiente_sem_nome_2-3);}.cls-6{fill:none;stroke:#fff;stroke-width:8px;}</style><linearGradient id="Gradiente_sem_nome_2" x1="233.06" y1="1466.35" x2="233.06" y2="1120.69" gradientUnits="userSpaceOnUse"><stop offset="0" stop-color="#fef050"/><stop offset="0.03" stop-color="#fae73d"/><stop offset="0.09" stop-color="#f5db22"/><stop offset="0.15" stop-color="#f2d20f"/><stop offset="0.22" stop-color="#f0cd04"/><stop offset="0.28" stop-color="#efcb00"/><stop offset="0.67" stop-color="#d99544"/><stop offset="0.89" stop-color="#cd6f3c"/><stop offset="1" stop-color="#c34435"/></linearGradient><linearGradient id="Gradiente_sem_nome_2-2" x1="506" y1="412.53" x2="506" y2="66.87" xlink:href="#Gradiente_sem_nome_2"/><linearGradient id="Gradiente_sem_nome_3" x1="553.25" y1="1466.35" x2="553.25" y2="1120.69" xlink:href="#Gradiente_sem_nome_2"/><linearGradient id="Gradiente_sem_nome_2-3" x1="831.69" y1="1466.35" x2="831.69" y2="1120.69" xlink:href="#Gradiente_sem_nome_2"/></defs><path class="cls-1" d="M277.26,1228.13q0,7.62.22,15.23l-82-128.87H75.6v363.26h113V1324l95.3,153.75h106.6V1114.49H277.26Z" transform="translate(-63.6 -1053.82)"/><polygon class="cls-1" points="590.14 94.08 561.13 16.6 422.43 84.58 445.15 144.43 590.14 94.08"/><path class="cls-1" d="M954.27,1324.25A94.67,94.67,0,0,0,916,1295.69l51.73-9.77-6.41-16.76c-9.54-25-25.65-44-47.89-56.59-21.39-12.11-48.77-18.24-81.35-18.24-37.48,0-68.5,8.92-92.2,26.51-25.08,18.62-37.8,43.41-37.8,73.69,0,21.78,7.52,41.74,22.33,59.34,5.58,6.64,13.5,12.46,24,17.55l-49,6.69a156.21,156.21,0,0,0,5.08-40.36c0-40.78-14-75.27-41.72-102.5s-64.29-40.92-109-40.92c-44.39,0-81.15,13.92-109.24,41.38S402,1298.09,402,1339.21c0,38.31,13.62,72.13,40.48,100.52,27.08,28.63,63.76,43.14,109,43.14,45.56,0,82.82-14,110.75-41.55a139.78,139.78,0,0,0,29.55-42c9.23,27.44,25.66,48.49,48.89,62.54,23.08,14,53.14,21,89.37,21,42.84,0,77.33-9,102.5-26.67,26.83-18.86,40.43-44.77,40.43-77C973,1358,966.72,1339.49,954.27,1324.25ZM566,1382.11c-2.1,9.88-6,11.68-13,11.68-5.4,0-8.54-1.78-11.22-6.36-1.8-3.09-6-14-6-49,0-27.18,3.4-39.81,6.27-45.62,3.07-6.24,6.56-7.5,11.2-7.5,7.24,0,9.87,2.55,11.76,6.65,2.6,5.66,5.71,17.89,5.71,44A222.63,222.63,0,0,1,566,1382.11Zm268.46,11.68c-13.67,0-23.72-1.92-30.06-5.72q11.19,2.09,23.91,3.85c4.69.62,8.67,1.22,12,1.77C838.59,1393.75,836.64,1393.79,834.5,1393.79Z" transform="translate(-63.6 -1053.82)"/><path class="cls-2" d="M292.26,1228.13a484.77,484.77,0,0,0,7.81,87.4q-12-27.6-35.15-64l-77.64-122.07H90.6v333.26h83V1301.37q0-22.45-8.06-54.69,17.87,40.5,35.44,68.82l91.27,147.25h83.25V1129.49H292.26Z" transform="translate(-63.6 -1053.82)"/><polygon class="cls-3" points="570.7 84.95 552.88 37.35 441.31 92.03 454 125.48 570.7 84.95"/><path class="cls-4" d="M553.73,1209.33q-60.78,0-98.75,37.11t-38,92.77q0,51.76,36.37,90.21t98.15,38.45q62.49,0,100.22-37.23t37.72-92.89q0-55.18-37.23-91.8T553.73,1209.33Zm27,175.9q-5,23.57-27.71,23.56-16.11,0-24.17-13.79t-8.05-56.52q0-36.37,7.81-52.25t24.66-15.87q18.3,0,25.39,15.38t7.08,50.3A235.87,235.87,0,0,1,580.71,1385.23Z" transform="translate(-63.6 -1053.82)"/><path class="cls-5" d="M942.65,1333.75q-15.37-18.81-37.1-25.9T822.78,1294q-23.44-2.65-23.44-14.86,0-4.14,7.69-8.42t23.32-4.27q33,0,43.21,22l73.73-13.92q-24.9-65.17-115.24-65.18-51.51,0-83.25,23.56t-31.74,61.64q0,27.35,18.8,49.68t94.49,32.84q27.33,3.66,34.66,7.2t7.33,9.89q0,14.65-37.84,14.65-45.66,0-52.25-26.85l-76.9,10.49q23.92,75.45,124.75,75.44,59.82,0,93.87-23.94T958,1379.19Q958,1352.57,942.65,1333.75Z" transform="translate(-63.6 -1053.82)"/><path class="cls-6" d="M292.26,1228.13a484.77,484.77,0,0,0,7.81,87.4q-12-27.6-35.15-64l-77.64-122.07H90.6v333.26h83V1301.37q0-22.45-8.06-54.69,17.87,40.5,35.44,68.82l91.27,147.25h83.25V1129.49H292.26Z" transform="translate(-63.6 -1053.82)"/><polygon class="cls-6" points="570.7 84.95 552.88 37.35 441.31 92.03 454 125.48 570.7 84.95"/><path class="cls-6" d="M553.73,1209.33q-60.78,0-98.75,37.11t-38,92.77q0,51.76,36.37,90.21t98.15,38.45q62.49,0,100.22-37.23t37.72-92.89q0-55.18-37.23-91.8T553.73,1209.33Zm27,175.9q-5,23.57-27.71,23.56-16.11,0-24.17-13.79t-8.05-56.52q0-36.37,7.81-52.25t24.66-15.87q18.3,0,25.39,15.38t7.08,50.3A235.87,235.87,0,0,1,580.71,1385.23Z" transform="translate(-63.6 -1053.82)"/><path class="cls-6" d="M942.65,1333.75q-15.37-18.81-37.1-25.9T822.78,1294q-23.44-2.65-23.44-14.86,0-4.14,7.69-8.42t23.32-4.27q33,0,43.21,22l73.73-13.92q-24.9-65.17-115.24-65.18-51.51,0-83.25,23.56t-31.74,61.64q0,27.35,18.8,49.68t94.49,32.84q27.33,3.66,34.66,7.2t7.33,9.89q0,14.65-37.84,14.65-45.66,0-52.25-26.85l-76.9,10.49q23.92,75.45,124.75,75.44,59.82,0,93.87-23.94T958,1379.19Q958,1352.57,942.65,1333.75Z" transform="translate(-63.6 -1053.82)"/></svg>