<svg id="Camada_1" data-name="Camada 1" xmlns="http://www.w3.org/2000/svg" xmlns:xlink="http://www.w3.org/1999/xlink" viewBox="0 0 1012.98 392.38"><defs><style>.cls-1{fill:#211915;stroke:#211915;stroke-width:24px;}.cls-1,.cls-6{stroke-miterlimit:10;}.cls-2{fill:url(#Laranja_Amarelo);}.cls-3{fill:url(#Laranja_Amarelo-2);}.cls-4{fill:url(#Laranja_Amarelo-3);}.cls-5{fill:url(#Laranja_Amarelo-4);}.cls-6{fill:none;stroke:#fff;stroke-width:8px;}</style><linearGradient id="Laranja_Amarelo" x1="155.77" y1="371.71" x2="149.29" y2="32.59" gradientUnits="userSpaceOnUse"><stop offset="0" stop-color="#fef050"/><stop offset="0.03" stop-color="#fae73d"/><stop offset="0.09" stop-color="#f5db22"/><stop offset="0.15" stop-color="#f2d20f"/><stop offset="0.22" stop-color="#f0cd04"/><stop offset="0.28" stop-color="#efcb00"/><stop offset="0.67" stop-color="#d99544"/><stop offset="0.89" stop-color="#cd6f3c"/><stop offset="1" stop-color="#c34435"/></linearGradient><linearGradient id="Laranja_Amarelo-2" x1="366.14" y1="367.69" x2="359.66" y2="28.57" xlink:href="#Laranja_Amarelo"/><linearGradient id="Laranja_Amarelo-3" x1="599" y1="1455.53" x2="592.52" y2="1116.41" xlink:href="#Laranja_Amarelo"/><linearGradient id="Laranja_Amarelo-4" x1="874.69" y1="1450.26" x2="868.21" y2="1111.14" xlink:href="#Laranja_Amarelo"/></defs><polygon class="cls-1" points="12 375.25 292.73 375.25 292.73 265.66 142.34 265.66 142.34 241.22 263.92 241.22 263.92 137.24 142.34 137.24 142.34 118.9 292.73 118.9 292.73 12 12 12 12 375.25"/><rect class="cls-1" x="299.84" y="12" width="125.95" height="363.25"/><path class="cls-1" d="M995.83,1313.79a94.75,94.75,0,0,0-38.28-28.57l51.72-9.76-6.4-16.77c-9.54-25-25.66-44-47.89-56.59-21.4-12.1-48.77-18.24-81.36-18.24-37.47,0-68.49,8.92-92.19,26.52-25.08,18.61-37.8,43.4-37.8,73.68,0,21.78,7.51,41.75,22.32,59.34,5.58,6.64,13.5,12.46,24,17.55l-43.51,5.94,2.51-11.42-3.6-.24.2-7.29c.17-6.31.25-11.07.25-14.56,0-45.48-13.87-82.18-41.23-109.08s-63.23-40.44-106.83-40.44c-45.06,0-81.8,14.45-109.2,42.93-27.24,28.33-41.05,63.45-41.05,104.4,0,39.85,14.1,73.74,41.9,100.73s64.88,40.49,110.55,40.49c40.84,0,74-9.73,98.69-28.92,17-13.24,29.72-28.64,38-46,9.62,23.25,24.94,41.35,45.67,53.88,23.07,13.95,53.14,21,89.37,21,42.84,0,77.32-9,102.49-26.67,26.83-18.86,40.44-44.77,40.44-77C1014.6,1347.51,1008.28,1329,995.83,1313.79ZM598.6,1271.23c6.09,0,10.71,1.57,14.54,4.93.49.44,2.17,2.24,3.45,7.56H580.74C584.28,1271.23,592.61,1271.23,598.6,1271.23Zm3.78,107.46c-9,0-15.31-1.77-17.43-4.86-1.43-2.07-3-5.54-4.18-11.29h43.78C621.85,1374.27,615.65,1378.69,602.38,1378.69Zm273.68,4.63c-13.67,0-23.71-1.91-30-5.72q11.18,2.09,23.91,3.85c4.68.63,8.66,1.22,12,1.77C880.16,1383.29,878.2,1383.32,876.06,1383.32Z" transform="translate(-13.61 -1092.03)"/><polygon class="cls-2" points="27 360.25 277.73 360.25 277.73 280.66 127.34 280.66 127.34 226.22 248.92 226.22 248.92 152.24 127.34 152.24 127.34 103.9 277.73 103.9 277.73 27 27 27 27 360.25"/><rect class="cls-3" x="314.84" y="27" width="95.95" height="333.25"/><path class="cls-4" d="M597.74,1198.86q-61.51,0-98.39,38.33t-36.86,94q0,53.7,37.35,90t100.1,36.26q56.4,0,89.48-25.76t41.13-62.38l-90.82-6.1q-5.61,30.52-37.35,30.52-22,0-29.79-11.36t-8.3-34.79H730.55q.24-9,.25-14.16,0-62.25-36.75-98.39T597.74,1198.86Zm-33.69,99.86q0-42.48,34.55-42.49,14.58,0,24.44,8.67t10.1,33.82Z" transform="translate(-13.61 -1092.03)"/><path class="cls-5" d="M984.22,1323.28q-15.37-18.81-37.1-25.9t-82.77-13.84q-23.45-2.64-23.45-14.85,0-4.15,7.7-8.43t23.31-4.27q33,0,43.21,22l73.73-13.91q-24.9-65.19-115.23-65.19-51.51,0-83.25,23.56t-31.74,61.64q0,27.35,18.8,49.69t94.48,32.83q27.35,3.68,34.67,7.21t7.32,9.89q0,14.64-37.84,14.64-45.66,0-52.25-26.85l-76.9,10.5q23.93,75.43,124.76,75.44,59.8,0,93.87-23.94t34.06-64.75Q999.6,1342.1,984.22,1323.28Z" transform="translate(-13.61 -1092.03)"/><polygon class="cls-6" points="27 360.25 277.73 360.25 277.73 280.66 127.34 280.66 127.34 226.22 248.92 226.22 248.92 152.24 127.34 152.24 127.34 103.9 277.73 103.9 277.73 27 27 27 27 360.25"/><rect class="cls-6" x="314.84" y="27" width="95.95" height="333.25"/><path class="cls-6" d="M597.74,1198.86q-61.51,0-98.39,38.33t-36.86,94q0,53.7,37.35,90t100.1,36.26q56.4,0,89.48-25.76t41.13-62.38l-90.82-6.1q-5.61,30.52-37.35,30.52-22,0-29.79-11.36t-8.3-34.79H730.55q.24-9,.25-14.16,0-62.25-36.75-98.39T597.74,1198.86Zm-33.69,99.86q0-42.48,34.55-42.49,14.58,0,24.44,8.67t10.1,33.82Z" transform="translate(-13.61 -1092.03)"/><path class="cls-6" d="M984.22,1323.28q-15.37-18.81-37.1-25.9t-82.77-13.84q-23.45-2.64-23.45-14.85,0-4.15,7.7-8.43t23.31-4.27q33,0,43.21,22l73.73-13.91q-24.9-65.19-115.23-65.19-51.51,0-83.25,23.56t-31.74,61.64q0,27.35,18.8,49.69t94.48,32.83q27.35,3.68,34.67,7.21t7.32,9.89q0,14.64-37.84,14.64-45.66,0-52.25-26.85l-76.9,10.5q23.93,75.43,124.76,75.44,59.8,0,93.87-23.94t34.06-64.75Q999.6,1342.1,984.22,1323.28Z" transform="translate(-13.61 -1092.03)"/></svg>