<svg id="Camada_1" data-name="Camada 1" xmlns="http://www.w3.org/2000/svg" viewBox="0 0 331.61 329.53"><defs><style>.cls-1{fill:#211915;}.cls-2{fill:#98691f;}.cls-3{fill:none;stroke:#fff;stroke-miterlimit:10;stroke-width:8px;}</style></defs><path class="cls-1" d="M-610.61,1213.06q0-72.51,41.14-116.7t108-44.19q66.17,0,107.3,44.31T-313,1213.06q0,72.27-41.14,116.46t-108.28,44.18q-66.16,0-107.17-44.18T-610.61,1213.06Zm189.45,0q0-59.32-9.52-85.82t-30.76-26.48q-22,0-31.74,26.36t-9.76,85.94q0,59.58,9.64,85.82t31.37,26.24q21.74,0,31.25-26T-421.16,1213.06Z" transform="translate(644.61 -1048.17)"/><path class="cls-2" d="M-640.61,1213.06q0-72.51,41.14-116.7t108-44.19q66.17,0,107.3,44.31T-343,1213.06q0,72.27-41.14,116.46t-108.28,44.18q-66.16,0-107.17-44.18T-640.61,1213.06Zm189.45,0q0-59.32-9.52-85.82t-30.76-26.48q-22,0-31.74,26.36t-9.76,85.94q0,59.58,9.64,85.82t31.37,26.24q21.74,0,31.25-26T-451.16,1213.06Z" transform="translate(644.61 -1048.17)"/><path class="cls-3" d="M-640.61,1213.06q0-72.51,41.14-116.7t108-44.19q66.17,0,107.3,44.31T-343,1213.06q0,72.27-41.14,116.46t-108.28,44.18q-66.16,0-107.17-44.18T-640.61,1213.06Zm189.45,0q0-59.32-9.52-85.82t-30.76-26.48q-22,0-31.74,26.36t-9.76,85.94q0,59.58,9.64,85.82t31.37,26.24q21.74,0,31.25-26T-451.16,1213.06Z" transform="translate(644.61 -1048.17)"/></svg>