<svg id="Camada_1" data-name="Camada 1" xmlns="http://www.w3.org/2000/svg" viewBox="0 0 232.49 312.44"><defs><style>.cls-1{fill:#211915;}.cls-2{fill:#98691f;}.cls-3{fill:none;stroke:#fff;stroke-miterlimit:10;stroke-width:8px;}</style></defs><path class="cls-1" d="M157.1,1144.21v-44.43q30.51-2.44,48.34-12.09t24.17-27h79.1v240q0,12.45,6.59,16.48t28.81,4h11.47v44H157.1v-44h13.67q23.67,0,31-4.15t7.32-24.41V1144.21Z" transform="translate(-123.1 -1056.72)"/><path class="cls-2" d="M127.1,1144.21v-44.43q30.51-2.44,48.34-12.09t24.17-27h79.1v240q0,12.45,6.59,16.48t28.81,4h11.47v44H127.1v-44h13.67q23.67,0,31-4.15t7.33-24.41V1144.21Z" transform="translate(-123.1 -1056.72)"/><path class="cls-3" d="M127.1,1144.21v-44.43q30.51-2.44,48.34-12.09t24.17-27h79.1v240q0,12.45,6.59,16.48t28.81,4h11.47v44H127.1v-44h13.67q23.67,0,31-4.15t7.33-24.41V1144.21Z" transform="translate(-123.1 -1056.72)"/></svg>