<svg id="Camada_1" data-name="Camada 1" xmlns="http://www.w3.org/2000/svg" viewBox="0 0 603.58 329.53"><defs><style>.cls-1{fill:#211915;}.cls-2{fill:#98691f;}.cls-3{fill:none;stroke:#f7f7f8;stroke-miterlimit:10;stroke-width:8px;}</style></defs><path class="cls-1" d="M670.71,2263.08v-44.43q30.52-2.45,48.34-12.09t24.17-27h79.11v240q0,12.45,6.59,16.48t28.81,4H869.2v44H670.71v-44h13.68q23.67,0,31-4.15t7.33-24.41V2263.08Z" transform="translate(-636.71 -2167.04)"/><path class="cls-1" d="M942.69,2331.93q0-72.51,41.13-116.7t108-44.19q66.15,0,107.3,44.31t41.13,116.58q0,72.27-41.13,116.45t-108.28,44.19q-66.17,0-107.18-44.19T942.69,2331.93Zm189.45,0q0-59.32-9.52-85.82t-30.76-26.49q-22,0-31.74,26.37t-9.77,85.94q0,59.57,9.65,85.81t31.37,26.25q21.72,0,31.25-26T1132.14,2331.93Z" transform="translate(-636.71 -2167.04)"/><path class="cls-1" d="M640.71,2263.08v-44.43q30.52-2.45,48.34-12.09t24.17-27h79.11v240q0,12.45,6.59,16.48t28.81,4H839.2v44H640.71v-44h13.68q23.67,0,31-4.15t7.33-24.41V2263.08Z" transform="translate(-636.71 -2167.04)"/><path class="cls-1" d="M912.69,2331.93q0-72.51,41.13-116.7t108-44.19q66.15,0,107.3,44.31t41.13,116.58q0,72.27-41.13,116.45t-108.28,44.19q-66.17,0-107.18-44.19T912.69,2331.93Zm189.45,0q0-59.32-9.52-85.82t-30.76-26.49q-22,0-31.74,26.37t-9.77,85.94q0,59.57,9.65,85.81t31.37,26.25q21.72,0,31.25-26T1102.14,2331.93Z" transform="translate(-636.71 -2167.04)"/><path class="cls-1" d="M640.71,2263.08v-44.43q30.52-2.45,48.34-12.09t24.17-27h79.11v240q0,12.45,6.59,16.48t28.81,4H839.2v44H640.71v-44h13.68q23.67,0,31-4.15t7.33-24.41V2263.08Z" transform="translate(-636.71 -2167.04)"/><path class="cls-1" d="M912.69,2331.93q0-72.51,41.13-116.7t108-44.19q66.15,0,107.3,44.31t41.13,116.58q0,72.27-41.13,116.45t-108.28,44.19q-66.17,0-107.18-44.19T912.69,2331.93Zm189.45,0q0-59.32-9.52-85.82t-30.76-26.49q-22,0-31.74,26.37t-9.77,85.94q0,59.57,9.65,85.81t31.37,26.25q21.72,0,31.25-26T1102.14,2331.93Z" transform="translate(-636.71 -2167.04)"/><path class="cls-2" d="M640.71,2263.08v-44.43q30.52-2.45,48.34-12.09t24.17-27h79.11v240q0,12.45,6.59,16.48t28.81,4H839.2v44H640.71v-44h13.68q23.67,0,31-4.15t7.33-24.41V2263.08Z" transform="translate(-636.71 -2167.04)"/><path class="cls-2" d="M912.69,2331.93q0-72.51,41.13-116.7t108-44.19q66.15,0,107.3,44.31t41.13,116.58q0,72.27-41.13,116.45t-108.28,44.19q-66.17,0-107.18-44.19T912.69,2331.93Zm189.45,0q0-59.32-9.52-85.82t-30.76-26.49q-22,0-31.74,26.37t-9.77,85.94q0,59.57,9.65,85.81t31.37,26.25q21.72,0,31.25-26T1102.14,2331.93Z" transform="translate(-636.71 -2167.04)"/><path class="cls-3" d="M640.71,2263.08v-44.43q30.52-2.45,48.34-12.09t24.17-27h79.11v240q0,12.45,6.59,16.48t28.81,4H839.2v44H640.71v-44h13.68q23.67,0,31-4.15t7.33-24.41V2263.08Z" transform="translate(-636.71 -2167.04)"/><path class="cls-3" d="M912.69,2331.93q0-72.51,41.13-116.7t108-44.19q66.15,0,107.3,44.31t41.13,116.58q0,72.27-41.13,116.45t-108.28,44.19q-66.17,0-107.18-44.19T912.69,2331.93Zm189.45,0q0-59.32-9.52-85.82t-30.76-26.49q-22,0-31.74,26.37t-9.77,85.94q0,59.57,9.65,85.81t31.37,26.25q21.72,0,31.25-26T1102.14,2331.93Z" transform="translate(-636.71 -2167.04)"/></svg>