<svg id="Camada_1" data-name="Camada 1" xmlns="http://www.w3.org/2000/svg" viewBox="0 0 556.46 312.44"><defs><style>.cls-1{fill:#211915;}.cls-2{fill:#98691f;}.cls-3{fill:none;stroke:#f7f7f8;stroke-miterlimit:10;stroke-width:8px;}</style></defs><path class="cls-1" d="M1455.57,2263.08v-44.43q30.53-2.45,48.34-12.09t24.17-27h79.1v240q0,12.45,6.59,16.48t28.81,4h11.48v44H1455.57v-44h13.67q23.68,0,31-4.15t7.32-24.41V2263.08Z" transform="translate(-1421.57 -2175.58)"/><path class="cls-1" d="M1779.55,2263.08v-44.43q30.51-2.45,48.34-12.09t24.17-27h79.1v240q0,12.45,6.59,16.48t28.81,4H1978v44H1779.55v-44h13.67q23.67,0,31-4.15t7.33-24.41V2263.08Z" transform="translate(-1421.57 -2175.58)"/><path class="cls-1" d="M1425.57,2263.08v-44.43q30.53-2.45,48.34-12.09t24.17-27h79.1v240q0,12.45,6.59,16.48t28.81,4h11.48v44H1425.57v-44h13.67q23.68,0,31-4.15t7.32-24.41V2263.08Z" transform="translate(-1421.57 -2175.58)"/><path class="cls-1" d="M1749.55,2263.08v-44.43q30.51-2.45,48.34-12.09t24.17-27h79.1v240q0,12.45,6.59,16.48t28.81,4H1948v44H1749.55v-44h13.67q23.67,0,31-4.15t7.33-24.41V2263.08Z" transform="translate(-1421.57 -2175.58)"/><path class="cls-1" d="M1425.57,2263.08v-44.43q30.53-2.45,48.34-12.09t24.17-27h79.1v240q0,12.45,6.59,16.48t28.81,4h11.48v44H1425.57v-44h13.67q23.68,0,31-4.15t7.32-24.41V2263.08Z" transform="translate(-1421.57 -2175.58)"/><path class="cls-1" d="M1749.55,2263.08v-44.43q30.51-2.45,48.34-12.09t24.17-27h79.1v240q0,12.45,6.59,16.48t28.81,4H1948v44H1749.55v-44h13.67q23.67,0,31-4.15t7.33-24.41V2263.08Z" transform="translate(-1421.57 -2175.58)"/><path class="cls-2" d="M1425.57,2263.08v-44.43q30.53-2.45,48.34-12.09t24.17-27h79.1v240q0,12.45,6.59,16.48t28.81,4h11.48v44H1425.57v-44h13.67q23.68,0,31-4.15t7.32-24.41V2263.08Z" transform="translate(-1421.57 -2175.58)"/><path class="cls-2" d="M1749.55,2263.08v-44.43q30.51-2.45,48.34-12.09t24.17-27h79.1v240q0,12.45,6.59,16.48t28.81,4H1948v44H1749.55v-44h13.67q23.67,0,31-4.15t7.33-24.41V2263.08Z" transform="translate(-1421.57 -2175.58)"/><path class="cls-3" d="M1425.57,2263.08v-44.43q30.53-2.45,48.34-12.09t24.17-27h79.1v240q0,12.45,6.59,16.48t28.81,4h11.48v44H1425.57v-44h13.67q23.68,0,31-4.15t7.32-24.41V2263.08Z" transform="translate(-1421.57 -2175.58)"/><path class="cls-3" d="M1749.55,2263.08v-44.43q30.51-2.45,48.34-12.09t24.17-27h79.1v240q0,12.45,6.59,16.48t28.81,4H1948v44H1749.55v-44h13.67q23.67,0,31-4.15t7.33-24.41V2263.08Z" transform="translate(-1421.57 -2175.58)"/></svg>