<svg id="Camada_1" data-name="Camada 1" xmlns="http://www.w3.org/2000/svg" viewBox="0 0 594.55 330.02"><defs><style>.cls-1{fill:#211915;}.cls-2{fill:#98691f;}.cls-3{fill:none;stroke:#f7f7f8;stroke-miterlimit:10;stroke-width:8px;}</style></defs><path class="cls-1" d="M-749.88,2824.7v-44.44q30.52-2.43,48.34-12.08t24.17-27h79.1v240q0,12.45,6.6,16.48t28.8,4h11.48v43.94H-749.88V3001.7h13.67q23.69,0,31-4.15t7.32-24.42V2824.7Z" transform="translate(783.88 -2728.66)"/><path class="cls-1" d="M-468.38,3046.13c0-1.3-.09-3.17-.25-5.61s-.24-4.23-.24-5.37q0-34.43,13.79-60.31t45.78-50.78q12.93-10.24,40.53-27t40-26a51.87,51.87,0,0,0,15.38-18.55,52.83,52.83,0,0,0,5.61-23.93q0-19.53-14-30.76t-38.45-11.23a73.65,73.65,0,0,0-27.95,5,59.79,59.79,0,0,0-21.61,15h2.44q17.82,0,27.71,9.28t9.89,26.12q0,22-13.31,34.55t-36.25,12.57q-23.2,0-36.87-14.53t-13.67-38.94q0-44.91,37.72-74t96.8-29.05q59.82,0,97.17,28.68t37.36,74.34q0,37.37-24.66,60.55t-85.94,41.5l-20.26,5.62q-60.06,16.84-67.63,39.31a162.11,162.11,0,0,1,32.47-13.19,119.31,119.31,0,0,1,32-4.39q16.35,0,40.77,6t32.23,6q10.5,0,15.75-8.42t5.25-25.52v-4.39h51c.16,2.12.28,4.39.37,6.84s.12,5.94.12,10.49q0,51.52-20.75,75.08t-65.68,23.56q-27.09,0-65.91-11.72t-49.56-11.72q-10,0-16,3.54t-8.66,11.35Z" transform="translate(783.88 -2728.66)"/><path class="cls-1" d="M-779.88,2824.7v-44.44q30.52-2.43,48.34-12.08t24.17-27h79.1v240q0,12.45,6.6,16.48t28.8,4h11.48v43.94H-779.88V3001.7h13.67q23.69,0,31-4.15t7.32-24.42V2824.7Z" transform="translate(783.88 -2728.66)"/><path class="cls-1" d="M-498.38,3046.13c0-1.3-.09-3.17-.25-5.61s-.24-4.23-.24-5.37q0-34.43,13.79-60.31t45.78-50.78q12.93-10.24,40.53-27t40-26a51.87,51.87,0,0,0,15.38-18.55,52.83,52.83,0,0,0,5.61-23.93q0-19.53-14-30.76t-38.45-11.23a73.65,73.65,0,0,0-27.95,5,59.79,59.79,0,0,0-21.61,15h2.44q17.82,0,27.71,9.28t9.89,26.12q0,22-13.31,34.55t-36.25,12.57q-23.2,0-36.87-14.53t-13.67-38.94q0-44.91,37.72-74t96.8-29.05q59.82,0,97.17,28.68t37.36,74.34q0,37.37-24.66,60.55t-85.94,41.5l-20.26,5.62q-60.06,16.84-67.63,39.31a162.11,162.11,0,0,1,32.47-13.19,119.31,119.31,0,0,1,32-4.39q16.35,0,40.77,6t32.23,6q10.5,0,15.75-8.42t5.25-25.52v-4.39h51c.16,2.12.28,4.39.37,6.84s.12,5.94.12,10.49q0,51.52-20.75,75.08t-65.68,23.56q-27.09,0-65.91-11.72t-49.56-11.72q-10,0-16,3.54t-8.66,11.35Z" transform="translate(783.88 -2728.66)"/><path class="cls-1" d="M-779.88,2824.7v-44.44q30.52-2.43,48.34-12.08t24.17-27h79.1v240q0,12.45,6.6,16.48t28.8,4h11.48v43.94H-779.88V3001.7h13.67q23.69,0,31-4.15t7.32-24.42V2824.7Z" transform="translate(783.88 -2728.66)"/><path class="cls-1" d="M-498.38,3046.13c0-1.3-.09-3.17-.25-5.61s-.24-4.23-.24-5.37q0-34.43,13.79-60.31t45.78-50.78q12.93-10.24,40.53-27t40-26a51.87,51.87,0,0,0,15.38-18.55,52.83,52.83,0,0,0,5.61-23.93q0-19.53-14-30.76t-38.45-11.23a73.65,73.65,0,0,0-27.95,5,59.79,59.79,0,0,0-21.61,15h2.44q17.82,0,27.71,9.28t9.89,26.12q0,22-13.31,34.55t-36.25,12.57q-23.2,0-36.87-14.53t-13.67-38.94q0-44.91,37.72-74t96.8-29.05q59.82,0,97.17,28.68t37.36,74.34q0,37.37-24.66,60.55t-85.94,41.5l-20.26,5.62q-60.06,16.84-67.63,39.31a162.11,162.11,0,0,1,32.47-13.19,119.31,119.31,0,0,1,32-4.39q16.35,0,40.77,6t32.23,6q10.5,0,15.75-8.42t5.25-25.52v-4.39h51c.16,2.12.28,4.39.37,6.84s.12,5.94.12,10.49q0,51.52-20.75,75.08t-65.68,23.56q-27.09,0-65.91-11.72t-49.56-11.72q-10,0-16,3.54t-8.66,11.35Z" transform="translate(783.88 -2728.66)"/><path class="cls-2" d="M-779.88,2824.7v-44.44q30.52-2.43,48.34-12.08t24.17-27h79.1v240q0,12.45,6.6,16.48t28.8,4h11.48v43.94H-779.88V3001.7h13.67q23.69,0,31-4.15t7.32-24.42V2824.7Z" transform="translate(783.88 -2728.66)"/><path class="cls-2" d="M-498.38,3046.13c0-1.3-.09-3.17-.25-5.61s-.24-4.23-.24-5.37q0-34.43,13.79-60.31t45.78-50.78q12.93-10.24,40.53-27t40-26a51.87,51.87,0,0,0,15.38-18.55,52.83,52.83,0,0,0,5.61-23.93q0-19.53-14-30.76t-38.45-11.23a73.65,73.65,0,0,0-27.95,5,59.79,59.79,0,0,0-21.61,15h2.44q17.82,0,27.71,9.28t9.89,26.12q0,22-13.31,34.55t-36.25,12.57q-23.2,0-36.87-14.53t-13.67-38.94q0-44.91,37.72-74t96.8-29.05q59.82,0,97.17,28.68t37.36,74.34q0,37.37-24.66,60.55t-85.94,41.5l-20.26,5.62q-60.06,16.84-67.63,39.31a162.11,162.11,0,0,1,32.47-13.19,119.31,119.31,0,0,1,32-4.39q16.35,0,40.77,6t32.23,6q10.5,0,15.75-8.42t5.25-25.52v-4.39h51c.16,2.12.28,4.39.37,6.84s.12,5.94.12,10.49q0,51.52-20.75,75.08t-65.68,23.56q-27.09,0-65.91-11.72t-49.56-11.72q-10,0-16,3.54t-8.66,11.35Z" transform="translate(783.88 -2728.66)"/><path class="cls-3" d="M-779.88,2824.7v-44.44q30.52-2.43,48.34-12.08t24.17-27h79.1v240q0,12.45,6.6,16.48t28.8,4h11.48v43.94H-779.88V3001.7h13.67q23.69,0,31-4.15t7.32-24.42V2824.7Z" transform="translate(783.88 -2728.66)"/><path class="cls-3" d="M-498.38,3046.13c0-1.3-.09-3.17-.25-5.61s-.24-4.23-.24-5.37q0-34.43,13.79-60.31t45.78-50.78q12.93-10.24,40.53-27t40-26a51.87,51.87,0,0,0,15.38-18.55,52.83,52.83,0,0,0,5.61-23.93q0-19.53-14-30.76t-38.45-11.23a73.65,73.65,0,0,0-27.95,5,59.79,59.79,0,0,0-21.61,15h2.44q17.82,0,27.71,9.28t9.89,26.12q0,22-13.31,34.55t-36.25,12.57q-23.2,0-36.87-14.53t-13.67-38.94q0-44.91,37.72-74t96.8-29.05q59.82,0,97.17,28.68t37.36,74.34q0,37.37-24.66,60.55t-85.94,41.5l-20.26,5.62q-60.06,16.84-67.63,39.31a162.11,162.11,0,0,1,32.47-13.19,119.31,119.31,0,0,1,32-4.39q16.35,0,40.77,6t32.23,6q10.5,0,15.75-8.42t5.25-25.52v-4.39h51c.16,2.12.28,4.39.37,6.84s.12,5.94.12,10.49q0,51.52-20.75,75.08t-65.68,23.56q-27.09,0-65.91-11.72t-49.56-11.72q-10,0-16,3.54t-8.66,11.35Z" transform="translate(783.88 -2728.66)"/></svg>