<svg id="Camada_1" data-name="Camada 1" xmlns="http://www.w3.org/2000/svg" viewBox="0 0 314.52 330.02"><defs><style>.cls-1{fill:#211915;}.cls-2{fill:#98691f;}.cls-3{fill:none;stroke:#f7f7f8;stroke-miterlimit:10;stroke-width:8px;}</style></defs><path class="cls-1" d="M827.15,1365.4c0-1.3-.09-3.17-.25-5.61s-.24-4.23-.24-5.37q0-34.43,13.79-60.31t45.78-50.78q12.93-10.24,40.53-27t40-26a52,52,0,0,0,15.38-18.56,52.8,52.8,0,0,0,5.61-23.93q0-19.51-14-30.76t-38.45-11.23a73.65,73.65,0,0,0-27.95,5,59.92,59.92,0,0,0-21.61,15h2.44q17.82,0,27.71,9.28t9.89,26.12q0,22-13.31,34.55t-36.25,12.57q-23.21,0-36.87-14.52t-13.67-39q0-44.91,37.72-74t96.8-29q59.82,0,97.17,28.68t37.36,74.34q0,37.36-24.66,60.55T984.13,1257l-20.26,5.61q-60.06,16.85-67.63,39.31a162.11,162.11,0,0,1,32.47-13.19,119.31,119.31,0,0,1,32-4.39q16.35,0,40.77,6t32.23,6q10.5,0,15.75-8.42t5.25-25.51V1258h51q.24,3.18.37,6.84t.12,10.5q0,51.51-20.75,75.07T1019.77,1374q-27.09,0-65.91-11.72t-49.56-11.72q-10,0-16,3.54t-8.66,11.35Z" transform="translate(-791.68 -1047.93)"/><path class="cls-1" d="M797.15,1365.4c0-1.3-.09-3.17-.25-5.61s-.24-4.23-.24-5.37q0-34.43,13.79-60.31t45.78-50.78q12.93-10.24,40.53-27t40-26a52,52,0,0,0,15.38-18.56,52.8,52.8,0,0,0,5.61-23.93q0-19.51-14-30.76t-38.45-11.23a73.65,73.65,0,0,0-27.95,5,59.92,59.92,0,0,0-21.61,15h2.44q17.82,0,27.71,9.28t9.89,26.12q0,22-13.31,34.55t-36.25,12.57q-23.21,0-36.87-14.52t-13.67-39q0-44.91,37.72-74t96.8-29q59.82,0,97.17,28.68t37.36,74.34q0,37.36-24.66,60.55T954.13,1257l-20.26,5.61q-60.06,16.85-67.63,39.31a162.11,162.11,0,0,1,32.47-13.19,119.31,119.31,0,0,1,32-4.39q16.35,0,40.77,6t32.23,6q10.5,0,15.75-8.42t5.25-25.51V1258h51q.24,3.18.37,6.84t.12,10.5q0,51.51-20.75,75.07T989.77,1374q-27.09,0-65.91-11.72t-49.56-11.72q-10,0-16,3.54t-8.66,11.35Z" transform="translate(-791.68 -1047.93)"/><path class="cls-1" d="M797.15,1365.4c0-1.3-.09-3.17-.25-5.61s-.24-4.23-.24-5.37q0-34.43,13.79-60.31t45.78-50.78q12.93-10.24,40.53-27t40-26a52,52,0,0,0,15.38-18.56,52.8,52.8,0,0,0,5.61-23.93q0-19.51-14-30.76t-38.45-11.23a73.65,73.65,0,0,0-27.95,5,59.92,59.92,0,0,0-21.61,15h2.44q17.82,0,27.71,9.28t9.89,26.12q0,22-13.31,34.55t-36.25,12.57q-23.21,0-36.87-14.52t-13.67-39q0-44.91,37.72-74t96.8-29q59.82,0,97.17,28.68t37.36,74.34q0,37.36-24.66,60.55T954.13,1257l-20.26,5.61q-60.06,16.85-67.63,39.31a162.11,162.11,0,0,1,32.47-13.19,119.31,119.31,0,0,1,32-4.39q16.35,0,40.77,6t32.23,6q10.5,0,15.75-8.42t5.25-25.51V1258h51q.24,3.18.37,6.84t.12,10.5q0,51.51-20.75,75.07T989.77,1374q-27.09,0-65.91-11.72t-49.56-11.72q-10,0-16,3.54t-8.66,11.35Z" transform="translate(-791.68 -1047.93)"/><path class="cls-2" d="M797.15,1365.4c0-1.3-.09-3.17-.25-5.61s-.24-4.23-.24-5.37q0-34.43,13.79-60.31t45.78-50.78q12.93-10.24,40.53-27t40-26a52,52,0,0,0,15.38-18.56,52.8,52.8,0,0,0,5.61-23.93q0-19.51-14-30.76t-38.45-11.23a73.65,73.65,0,0,0-27.95,5,59.92,59.92,0,0,0-21.61,15h2.44q17.82,0,27.71,9.28t9.89,26.12q0,22-13.31,34.55t-36.25,12.57q-23.21,0-36.87-14.52t-13.67-39q0-44.91,37.72-74t96.8-29q59.82,0,97.17,28.68t37.36,74.34q0,37.36-24.66,60.55T954.13,1257l-20.26,5.61q-60.06,16.85-67.63,39.31a162.11,162.11,0,0,1,32.47-13.19,119.31,119.31,0,0,1,32-4.39q16.35,0,40.77,6t32.23,6q10.5,0,15.75-8.42t5.25-25.51V1258h51q.24,3.18.37,6.84t.12,10.5q0,51.51-20.75,75.07T989.77,1374q-27.09,0-65.91-11.72t-49.56-11.72q-10,0-16,3.54t-8.66,11.35Z" transform="translate(-791.68 -1047.93)"/><path class="cls-3" d="M797.15,1365.4c0-1.3-.09-3.17-.25-5.61s-.24-4.23-.24-5.37q0-34.43,13.79-60.31t45.78-50.78q12.93-10.24,40.53-27t40-26a52,52,0,0,0,15.38-18.56,52.8,52.8,0,0,0,5.61-23.93q0-19.51-14-30.76t-38.45-11.23a73.65,73.65,0,0,0-27.95,5,59.92,59.92,0,0,0-21.61,15h2.44q17.82,0,27.71,9.28t9.89,26.12q0,22-13.31,34.55t-36.25,12.57q-23.21,0-36.87-14.52t-13.67-39q0-44.91,37.72-74t96.8-29q59.82,0,97.17,28.68t37.36,74.34q0,37.36-24.66,60.55T954.13,1257l-20.26,5.61q-60.06,16.85-67.63,39.31a162.11,162.11,0,0,1,32.47-13.19,119.31,119.31,0,0,1,32-4.39q16.35,0,40.77,6t32.23,6q10.5,0,15.75-8.42t5.25-25.51V1258h51q.24,3.18.37,6.84t.12,10.5q0,51.51-20.75,75.07T989.77,1374q-27.09,0-65.91-11.72t-49.56-11.72q-10,0-16,3.54t-8.66,11.35Z" transform="translate(-791.68 -1047.93)"/></svg>