<svg id="Camada_1" data-name="Camada 1" xmlns="http://www.w3.org/2000/svg" viewBox="0 0 315.01 329.53"><defs><style>.cls-1{fill:#211915;}.cls-2{fill:#98691f;}.cls-3{fill:none;stroke:#f7f7f8;stroke-miterlimit:10;stroke-width:8px;}</style></defs><path class="cls-1" d="M1693.24,1228.2v-42q26.61-1.21,39.31-10.49t12.69-28.08q0-22-14.89-35.28t-40-13.3q-15.13,0-25.51,4.27a42.46,42.46,0,0,0-17.46,13.3q13.92,0,22.71,9t8.79,23.44q0,19.53-12,29.78t-34.18,10.25q-21.5,0-34.92-12.81t-13.42-33.57q0-41.26,37.84-65.92t102.54-24.66q57.12,0,89.11,22.1t32,61.4q0,24.42-13.92,40.89t-41.74,25q33.93,11,50.53,30.64t16.61,49q0,43.2-36.14,67.87t-99.36,24.65q-71.54,0-108.52-21t-37-61.52q0-24.18,15.87-39.8t40-15.62q21.48,0,34.54,11.71t13.06,31.25q0,17.34-9.64,26.25t-30.39,11.11a74.8,74.8,0,0,0,22,8.66,120.59,120.59,0,0,0,27.1,2.81q29.06,0,44.92-13.3t15.87-38.21q0-23.19-14.41-35.52T1693.24,1228.2Z" transform="translate(-1542.3 -1048.17)"/><path class="cls-1" d="M1663.24,1228.2v-42q26.61-1.21,39.31-10.49t12.69-28.08q0-22-14.89-35.28t-40-13.3q-15.13,0-25.51,4.27a42.46,42.46,0,0,0-17.46,13.3q13.92,0,22.71,9t8.79,23.44q0,19.53-12,29.78t-34.18,10.25q-21.5,0-34.92-12.81t-13.42-33.57q0-41.26,37.84-65.92t102.54-24.66q57.12,0,89.11,22.1t32,61.4q0,24.42-13.92,40.89t-41.74,25q33.93,11,50.53,30.64t16.61,49q0,43.2-36.14,67.87t-99.36,24.65q-71.54,0-108.52-21t-37-61.52q0-24.18,15.87-39.8t40-15.62q21.48,0,34.54,11.71t13.06,31.25q0,17.34-9.64,26.25t-30.39,11.11a74.8,74.8,0,0,0,22,8.66,120.59,120.59,0,0,0,27.1,2.81q29.06,0,44.92-13.3t15.87-38.21q0-23.19-14.41-35.52T1663.24,1228.2Z" transform="translate(-1542.3 -1048.17)"/><path class="cls-1" d="M1663.24,1228.2v-42q26.61-1.21,39.31-10.49t12.69-28.08q0-22-14.89-35.28t-40-13.3q-15.13,0-25.51,4.27a42.46,42.46,0,0,0-17.46,13.3q13.92,0,22.71,9t8.79,23.44q0,19.53-12,29.78t-34.18,10.25q-21.5,0-34.92-12.81t-13.42-33.57q0-41.26,37.84-65.92t102.54-24.66q57.12,0,89.11,22.1t32,61.4q0,24.42-13.92,40.89t-41.74,25q33.93,11,50.53,30.64t16.61,49q0,43.2-36.14,67.87t-99.36,24.65q-71.54,0-108.52-21t-37-61.52q0-24.18,15.87-39.8t40-15.62q21.48,0,34.54,11.71t13.06,31.25q0,17.34-9.64,26.25t-30.39,11.11a74.8,74.8,0,0,0,22,8.66,120.59,120.59,0,0,0,27.1,2.81q29.06,0,44.92-13.3t15.87-38.21q0-23.19-14.41-35.52T1663.24,1228.2Z" transform="translate(-1542.3 -1048.17)"/><path class="cls-2" d="M1663.24,1228.2v-42q26.61-1.21,39.31-10.49t12.69-28.08q0-22-14.89-35.28t-40-13.3q-15.13,0-25.51,4.27a42.46,42.46,0,0,0-17.46,13.3q13.92,0,22.71,9t8.79,23.44q0,19.53-12,29.78t-34.18,10.25q-21.5,0-34.92-12.81t-13.42-33.57q0-41.26,37.84-65.92t102.54-24.66q57.12,0,89.11,22.1t32,61.4q0,24.42-13.92,40.89t-41.74,25q33.93,11,50.53,30.64t16.61,49q0,43.2-36.14,67.87t-99.36,24.65q-71.54,0-108.52-21t-37-61.52q0-24.18,15.87-39.8t40-15.62q21.48,0,34.54,11.71t13.06,31.25q0,17.34-9.64,26.25t-30.39,11.11a74.8,74.8,0,0,0,22,8.66,120.59,120.59,0,0,0,27.1,2.81q29.06,0,44.92-13.3t15.87-38.21q0-23.19-14.41-35.52T1663.24,1228.2Z" transform="translate(-1542.3 -1048.17)"/><path class="cls-3" d="M1663.24,1228.2v-42q26.61-1.21,39.31-10.49t12.69-28.08q0-22-14.89-35.28t-40-13.3q-15.13,0-25.51,4.27a42.46,42.46,0,0,0-17.46,13.3q13.92,0,22.71,9t8.79,23.44q0,19.53-12,29.78t-34.18,10.25q-21.5,0-34.92-12.81t-13.42-33.57q0-41.26,37.84-65.92t102.54-24.66q57.12,0,89.11,22.1t32,61.4q0,24.42-13.92,40.89t-41.74,25q33.93,11,50.53,30.64t16.61,49q0,43.2-36.14,67.87t-99.36,24.65q-71.54,0-108.52-21t-37-61.52q0-24.18,15.87-39.8t40-15.62q21.48,0,34.54,11.71t13.06,31.25q0,17.34-9.64,26.25t-30.39,11.11a74.8,74.8,0,0,0,22,8.66,120.59,120.59,0,0,0,27.1,2.81q29.06,0,44.92-13.3t15.87-38.21q0-23.19-14.41-35.52T1663.24,1228.2Z" transform="translate(-1542.3 -1048.17)"/></svg>