<svg id="Camada_1" data-name="Camada 1" xmlns="http://www.w3.org/2000/svg" viewBox="0 0 326.72 312.44"><defs><style>.cls-1{fill:#211915;}.cls-2{fill:#98691f;}.cls-3{fill:none;stroke:#f7f7f8;stroke-miterlimit:10;stroke-width:8px;}</style></defs><path class="cls-1" d="M-378.3,1861.86v22.46q0,12.45,6.6,16.48t28.81,4h12.2v44H-524.78v-44h13.43q23.43,0,31-4.27t7.57-24.78v-13.92H-623.41v-53.47l151.12-164.06h94v175.05h47.61v42.48Zm-190.42-42.48h95.94l1-106.69Z" transform="translate(657.41 -1640.33)"/><path class="cls-1" d="M-408.3,1861.86v22.46q0,12.45,6.6,16.48t28.81,4h12.2v44H-554.78v-44h13.43q23.43,0,31-4.27t7.57-24.78v-13.92H-653.41v-53.47l151.12-164.06h94v175.05h47.61v42.48Zm-190.42-42.48h95.94l1-106.69Z" transform="translate(657.41 -1640.33)"/><path class="cls-1" d="M-408.3,1861.86v22.46q0,12.45,6.6,16.48t28.81,4h12.2v44H-554.78v-44h13.43q23.43,0,31-4.27t7.57-24.78v-13.92H-653.41v-53.47l151.12-164.06h94v175.05h47.61v42.48Zm-190.42-42.48h95.94l1-106.69Z" transform="translate(657.41 -1640.33)"/><path class="cls-2" d="M-408.3,1861.86v22.46q0,12.45,6.6,16.48t28.81,4h12.2v44H-554.78v-44h13.43q23.43,0,31-4.27t7.57-24.78v-13.92H-653.41v-53.47l151.12-164.06h94v175.05h47.61v42.48Zm-190.42-42.48h95.94l1-106.69Z" transform="translate(657.41 -1640.33)"/><path class="cls-3" d="M-408.3,1861.86v22.46q0,12.45,6.6,16.48t28.81,4h12.2v44H-554.78v-44h13.43q23.43,0,31-4.27t7.57-24.78v-13.92H-653.41v-53.47l151.12-164.06h94v175.05h47.61v42.48Zm-190.42-42.48h95.94l1-106.69Z" transform="translate(657.41 -1640.33)"/></svg>