<svg id="Camada_1" data-name="Camada 1" xmlns="http://www.w3.org/2000/svg" viewBox="0 0 306.95 333.44"><defs><style>.cls-1{fill:#211915;}.cls-2{fill:#98691f;}.cls-3{fill:none;stroke:#f7f7f8;stroke-miterlimit:10;stroke-width:8px;}</style></defs><path class="cls-1" d="M125.86,1795.7l9-157q43.22,3.66,69.22,5.12t43.33,1.47a450.26,450.26,0,0,0,91.56-9.52q10.49-1.95,12.94-2a8.37,8.37,0,0,1,6.71,3.54,14,14,0,0,1,2.81,8.92q0,22.45-35.28,42.48t-82.89,20q-9.27,0-23.31-1t-36-2.93l-2.2,39.31a107.08,107.08,0,0,1,29.42-11.6A155.74,155.74,0,0,1,247,1728.8q60.78,0,95.82,30.77t35,83.74q0,51.51-40.66,83.74t-106.81,32.22q-58.09,0-91.79-24.17t-33.69-65.43q0-23.19,14.77-37.35t39.18-14.16q21.24,0,34.67,12.09t13.43,30.39q0,17.82-8.06,26.73t-27.1,12.33a72,72,0,0,0,18.8,11.36,54.41,54.41,0,0,0,20.26,3.78q26.87,0,43.7-20.14t16.85-52.37q0-29.3-13.92-46.14t-37.59-16.85a56.1,56.1,0,0,0-21,3.91,62.55,62.55,0,0,0-19,12.45Z" transform="translate(-70.87 -1629.83)"/><path class="cls-1" d="M95.86,1795.7l9-157q43.21,3.66,69.22,5.12t43.33,1.47a450.26,450.26,0,0,0,91.56-9.52q10.49-1.95,12.94-2a8.37,8.37,0,0,1,6.71,3.54,14,14,0,0,1,2.81,8.92q0,22.45-35.28,42.48t-82.89,20q-9.27,0-23.31-1t-36-2.93l-2.2,39.31a107.08,107.08,0,0,1,29.42-11.6A155.74,155.74,0,0,1,217,1728.8q60.78,0,95.82,30.77t35,83.74q0,51.51-40.66,83.74t-106.81,32.22q-58.09,0-91.79-24.17t-33.69-65.43q0-23.19,14.77-37.35t39.18-14.16q21.24,0,34.67,12.09t13.43,30.39q0,17.82-8.06,26.73t-27.1,12.33a72,72,0,0,0,18.8,11.36,54.41,54.41,0,0,0,20.26,3.78q26.87,0,43.7-20.14t16.85-52.37q0-29.3-13.92-46.14t-37.59-16.85a56.1,56.1,0,0,0-21,3.91,62.55,62.55,0,0,0-19,12.45Z" transform="translate(-70.87 -1629.83)"/><path class="cls-1" d="M95.86,1795.7l9-157q43.21,3.66,69.22,5.12t43.33,1.47a450.26,450.26,0,0,0,91.56-9.52q10.49-1.95,12.94-2a8.37,8.37,0,0,1,6.71,3.54,14,14,0,0,1,2.81,8.92q0,22.45-35.28,42.48t-82.89,20q-9.27,0-23.31-1t-36-2.93l-2.2,39.31a107.08,107.08,0,0,1,29.42-11.6A155.74,155.74,0,0,1,217,1728.8q60.78,0,95.82,30.77t35,83.74q0,51.51-40.66,83.74t-106.81,32.22q-58.09,0-91.79-24.17t-33.69-65.43q0-23.19,14.77-37.35t39.18-14.16q21.24,0,34.67,12.09t13.43,30.39q0,17.82-8.06,26.73t-27.1,12.33a72,72,0,0,0,18.8,11.36,54.41,54.41,0,0,0,20.26,3.78q26.87,0,43.7-20.14t16.85-52.37q0-29.3-13.92-46.14t-37.59-16.85a56.1,56.1,0,0,0-21,3.91,62.55,62.55,0,0,0-19,12.45Z" transform="translate(-70.87 -1629.83)"/><path class="cls-2" d="M95.86,1795.7l9-157q43.21,3.66,69.22,5.12t43.33,1.47a450.26,450.26,0,0,0,91.56-9.52q10.49-1.95,12.94-2a8.37,8.37,0,0,1,6.71,3.54,14,14,0,0,1,2.81,8.92q0,22.45-35.28,42.48t-82.89,20q-9.27,0-23.31-1t-36-2.93l-2.2,39.31a107.08,107.08,0,0,1,29.42-11.6A155.74,155.74,0,0,1,217,1728.8q60.78,0,95.82,30.77t35,83.74q0,51.51-40.66,83.74t-106.81,32.22q-58.09,0-91.79-24.17t-33.69-65.43q0-23.19,14.77-37.35t39.18-14.16q21.24,0,34.67,12.09t13.43,30.39q0,17.82-8.06,26.73t-27.1,12.33a72,72,0,0,0,18.8,11.36,54.41,54.41,0,0,0,20.26,3.78q26.87,0,43.7-20.14t16.85-52.37q0-29.3-13.92-46.14t-37.59-16.85a56.1,56.1,0,0,0-21,3.91,62.55,62.55,0,0,0-19,12.45Z" transform="translate(-70.87 -1629.83)"/><path class="cls-3" d="M95.86,1795.7l9-157q43.21,3.66,69.22,5.12t43.33,1.47a450.26,450.26,0,0,0,91.56-9.52q10.49-1.95,12.94-2a8.37,8.37,0,0,1,6.71,3.54,14,14,0,0,1,2.81,8.92q0,22.45-35.28,42.48t-82.89,20q-9.27,0-23.31-1t-36-2.93l-2.2,39.31a107.08,107.08,0,0,1,29.42-11.6A155.74,155.74,0,0,1,217,1728.8q60.78,0,95.82,30.77t35,83.74q0,51.51-40.66,83.74t-106.81,32.22q-58.09,0-91.79-24.17t-33.69-65.43q0-23.19,14.77-37.35t39.18-14.16q21.24,0,34.67,12.09t13.43,30.39q0,17.82-8.06,26.73t-27.1,12.33a72,72,0,0,0,18.8,11.36,54.41,54.41,0,0,0,20.26,3.78q26.87,0,43.7-20.14t16.85-52.37q0-29.3-13.92-46.14t-37.59-16.85a56.1,56.1,0,0,0-21,3.91,62.55,62.55,0,0,0-19,12.45Z" transform="translate(-70.87 -1629.83)"/></svg>