<svg id="Camada_1" data-name="Camada 1" xmlns="http://www.w3.org/2000/svg" viewBox="0 0 309.15 329.53"><defs><style>.cls-1{fill:#211915;}.cls-2{fill:#98691f;}.cls-3{fill:none;stroke:#f7f7f8;stroke-miterlimit:10;stroke-width:8px;}</style></defs><path class="cls-1" d="M935.38,1775.19A156.75,156.75,0,0,1,969.8,1761a131.87,131.87,0,0,1,34.67-4.64q46.63,0,75.32,27t28.68,70.92q0,48.35-33.44,75.69t-92.53,27.34q-70.82,0-110-39.79t-39.18-111.82q0-78.62,42.84-124.27t116.34-45.65q47.12,0,76.29,19.65t29.18,50.9q0,19.54-12.94,31t-35.16,11.47q-20,0-33-10.62T1004,1711.71a32.62,32.62,0,0,1,4.27-17q4.28-7.2,13.06-12.58a67.39,67.39,0,0,0-10.37-2.56,61.67,61.67,0,0,0-9.89-.85q-29.79,0-47.73,25.63t-17.94,69.34Zm39.55,140.14q15.62,0,25-15t9.4-39.91q0-25.15-9.4-40.16t-25-15q-15.87,0-25.15,14.77t-9.28,40.41q0,25.39,9.28,40.16T974.93,1915.33Z" transform="translate(-799.33 -1631.79)"/><path class="cls-1" d="M905.38,1775.19A156.75,156.75,0,0,1,939.8,1761a131.87,131.87,0,0,1,34.67-4.64q46.63,0,75.32,27t28.68,70.92q0,48.35-33.44,75.69t-92.53,27.34q-70.82,0-110-39.79t-39.18-111.82q0-78.62,42.84-124.27t116.34-45.65q47.12,0,76.29,19.65t29.18,50.9q0,19.54-12.94,31t-35.16,11.47q-20,0-33-10.62T974,1711.71a32.62,32.62,0,0,1,4.27-17q4.28-7.2,13.06-12.58a67.39,67.39,0,0,0-10.37-2.56,61.67,61.67,0,0,0-9.89-.85q-29.79,0-47.73,25.63t-17.94,69.34Zm39.55,140.14q15.62,0,25-15t9.4-39.91q0-25.15-9.4-40.16t-25-15q-15.87,0-25.15,14.77t-9.28,40.41q0,25.39,9.28,40.16T944.93,1915.33Z" transform="translate(-799.33 -1631.79)"/><path class="cls-1" d="M905.38,1775.19A156.75,156.75,0,0,1,939.8,1761a131.87,131.87,0,0,1,34.67-4.64q46.63,0,75.32,27t28.68,70.92q0,48.35-33.44,75.69t-92.53,27.34q-70.82,0-110-39.79t-39.18-111.82q0-78.62,42.84-124.27t116.34-45.65q47.12,0,76.29,19.65t29.18,50.9q0,19.54-12.94,31t-35.16,11.47q-20,0-33-10.62T974,1711.71a32.62,32.62,0,0,1,4.27-17q4.28-7.2,13.06-12.58a67.39,67.39,0,0,0-10.37-2.56,61.67,61.67,0,0,0-9.89-.85q-29.79,0-47.73,25.63t-17.94,69.34Zm39.55,140.14q15.62,0,25-15t9.4-39.91q0-25.15-9.4-40.16t-25-15q-15.87,0-25.15,14.77t-9.28,40.41q0,25.39,9.28,40.16T944.93,1915.33Z" transform="translate(-799.33 -1631.79)"/><path class="cls-2" d="M905.38,1775.19A156.75,156.75,0,0,1,939.8,1761a131.87,131.87,0,0,1,34.67-4.64q46.63,0,75.32,27t28.68,70.92q0,48.35-33.44,75.69t-92.53,27.34q-70.82,0-110-39.79t-39.18-111.82q0-78.62,42.84-124.27t116.34-45.65q47.12,0,76.29,19.65t29.18,50.9q0,19.54-12.94,31t-35.16,11.47q-20,0-33-10.62T974,1711.71a32.62,32.62,0,0,1,4.27-17q4.28-7.2,13.06-12.58a67.39,67.39,0,0,0-10.37-2.56,61.67,61.67,0,0,0-9.89-.85q-29.79,0-47.73,25.63t-17.94,69.34Zm39.55,140.14q15.62,0,25-15t9.4-39.91q0-25.15-9.4-40.16t-25-15q-15.87,0-25.15,14.77t-9.28,40.41q0,25.39,9.28,40.16T944.93,1915.33Z" transform="translate(-799.33 -1631.79)"/><path class="cls-3" d="M905.38,1775.19A156.75,156.75,0,0,1,939.8,1761a131.87,131.87,0,0,1,34.67-4.64q46.63,0,75.32,27t28.68,70.92q0,48.35-33.44,75.69t-92.53,27.34q-70.82,0-110-39.79t-39.18-111.82q0-78.62,42.84-124.27t116.34-45.65q47.12,0,76.29,19.65t29.18,50.9q0,19.54-12.94,31t-35.16,11.47q-20,0-33-10.62T974,1711.71a32.62,32.62,0,0,1,4.27-17q4.28-7.2,13.06-12.58a67.39,67.39,0,0,0-10.37-2.56,61.67,61.67,0,0,0-9.89-.85q-29.79,0-47.73,25.63t-17.94,69.34Zm39.55,140.14q15.62,0,25-15t9.4-39.91q0-25.15-9.4-40.16t-25-15q-15.87,0-25.15,14.77t-9.28,40.41q0,25.39,9.28,40.16T944.93,1915.33Z" transform="translate(-799.33 -1631.79)"/></svg>