<svg id="Camada_1" data-name="Camada 1" xmlns="http://www.w3.org/2000/svg" viewBox="0 0 309.63 318.55"><defs><style>.cls-1{fill:#211915;}.cls-2{fill:#98691f;}.cls-3{fill:none;stroke:#f7f7f8;stroke-miterlimit:10;stroke-width:8px;}</style></defs><path class="cls-1" d="M1661.61,1951.83q-.24-2.68-.36-6.23t-.13-10.37q0-37.61,10.38-67.51t33.08-58q11.48-13.92,43.7-42.73t48.34-47.12a131.94,131.94,0,0,1-22.46,7.82,92.23,92.23,0,0,1-22,2.68q-16.37,0-38.09-4.27t-27.59-4.27q-19.29,0-27.83,11.59t-8.54,38q0,6.84.12,10.62t.37,6.71H1594V1647.38h57.13l-.48,31q10.48-18.56,26.48-27.83t37.48-9.28q24.9,0,56,12.33t38.45,12.33q8.06,0,12.33-3.91t4.27-11.23v-3.42h43.46c.16,1.14.28,2.37.37,3.67s.12,3.25.12,5.86q0,30.27-43.21,98.63-5.87,9.29-8.79,14.4-30.76,50.54-41.63,88.14t-10.86,82.27v11.48Z" transform="translate(-1559.98 -1637.28)"/><path class="cls-1" d="M1631.61,1951.83q-.24-2.68-.36-6.23t-.13-10.37q0-37.61,10.38-67.51t33.08-58q11.48-13.92,43.7-42.73t48.34-47.12a131.94,131.94,0,0,1-22.46,7.82,92.23,92.23,0,0,1-22,2.68q-16.37,0-38.09-4.27t-27.59-4.27q-19.29,0-27.83,11.59t-8.54,38q0,6.84.12,10.62t.37,6.71H1564V1647.38h57.13l-.48,31q10.48-18.56,26.48-27.83t37.48-9.28q24.9,0,56,12.33t38.45,12.33q8.06,0,12.33-3.91t4.27-11.23v-3.42h43.46c.16,1.14.28,2.37.37,3.67s.12,3.25.12,5.86q0,30.27-43.21,98.63-5.87,9.29-8.79,14.4-30.76,50.54-41.63,88.14t-10.86,82.27v11.48Z" transform="translate(-1559.98 -1637.28)"/><path class="cls-1" d="M1631.61,1951.83q-.24-2.68-.36-6.23t-.13-10.37q0-37.61,10.38-67.51t33.08-58q11.48-13.92,43.7-42.73t48.34-47.12a131.94,131.94,0,0,1-22.46,7.82,92.23,92.23,0,0,1-22,2.68q-16.37,0-38.09-4.27t-27.59-4.27q-19.29,0-27.83,11.59t-8.54,38q0,6.84.12,10.62t.37,6.71H1564V1647.38h57.13l-.48,31q10.48-18.56,26.48-27.83t37.48-9.28q24.9,0,56,12.33t38.45,12.33q8.06,0,12.33-3.91t4.27-11.23v-3.42h43.46c.16,1.14.28,2.37.37,3.67s.12,3.25.12,5.86q0,30.27-43.21,98.63-5.87,9.29-8.79,14.4-30.76,50.54-41.63,88.14t-10.86,82.27v11.48Z" transform="translate(-1559.98 -1637.28)"/><path class="cls-2" d="M1631.61,1951.83q-.24-2.68-.36-6.23t-.13-10.37q0-37.61,10.38-67.51t33.08-58q11.48-13.92,43.7-42.73t48.34-47.12a131.94,131.94,0,0,1-22.46,7.82,92.23,92.23,0,0,1-22,2.68q-16.37,0-38.09-4.27t-27.59-4.27q-19.29,0-27.83,11.59t-8.54,38q0,6.84.12,10.62t.37,6.71H1564V1647.38h57.13l-.48,31q10.48-18.56,26.48-27.83t37.48-9.28q24.9,0,56,12.33t38.45,12.33q8.06,0,12.33-3.91t4.27-11.23v-3.42h43.46c.16,1.14.28,2.37.37,3.67s.12,3.25.12,5.86q0,30.27-43.21,98.63-5.87,9.29-8.79,14.4-30.76,50.54-41.63,88.14t-10.86,82.27v11.48Z" transform="translate(-1559.98 -1637.28)"/><path class="cls-3" d="M1631.61,1951.83q-.24-2.68-.36-6.23t-.13-10.37q0-37.61,10.38-67.51t33.08-58q11.48-13.92,43.7-42.73t48.34-47.12a131.94,131.94,0,0,1-22.46,7.82,92.23,92.23,0,0,1-22,2.68q-16.37,0-38.09-4.27t-27.59-4.27q-19.29,0-27.83,11.59t-8.54,38q0,6.84.12,10.62t.37,6.71H1564V1647.38h57.13l-.48,31q10.48-18.56,26.48-27.83t37.48-9.28q24.9,0,56,12.33t38.45,12.33q8.06,0,12.33-3.91t4.27-11.23v-3.42h43.46c.16,1.14.28,2.37.37,3.67s.12,3.25.12,5.86q0,30.27-43.21,98.63-5.87,9.29-8.79,14.4-30.76,50.54-41.63,88.14t-10.86,82.27v11.48Z" transform="translate(-1559.98 -1637.28)"/></svg>