<svg id="Camada_1" data-name="Camada 1" xmlns="http://www.w3.org/2000/svg" viewBox="0 0 326.48 329.53"><defs><style>.cls-1{fill:#211915;}.cls-2{fill:#98691f;}.cls-3{fill:none;stroke:#f7f7f8;stroke-miterlimit:10;stroke-width:8px;}</style></defs><path class="cls-1" d="M-551.41,2342.55q-22-14.65-32.47-31.62t-10.49-38.45q0-42.48,36.13-67.51t98.39-25q58.35,0,91.67,20.63t33.33,56.27q0,21-12,35.4T-382.46,2315q34.66,15.63,50.66,36.62t16,51.27q0,46.64-40,72.63t-112.06,26q-67.87,0-104.13-22.58t-36.25-64.58q0-24.9,13.79-42.35T-551.41,2342.55Zm47.12,24.9q-17.08,9-25.63,20.26t-8.55,24.17q0,21.49,19.78,35t52.25,13.55q26.85,0,41.13-8.43t14.29-24q0-12.7-10.26-22.1t-35.64-19.41Zm71.78-74.46q13.92-6.84,20.75-15.38a30.07,30.07,0,0,0,6.84-19.29q0-14.9-14.16-24.66t-36.87-9.77q-22.21,0-35.27,7.57t-13.07,20q0,10,9.4,17.21t34.55,15.26Z" transform="translate(642.29 -2175.95)"/><path class="cls-1" d="M-581.41,2342.55q-22-14.65-32.47-31.62t-10.49-38.45q0-42.48,36.13-67.51t98.39-25q58.35,0,91.67,20.63t33.33,56.27q0,21-12,35.4T-412.46,2315q34.66,15.63,50.66,36.62t16,51.27q0,46.64-40,72.63t-112.06,26q-67.87,0-104.13-22.58t-36.25-64.58q0-24.9,13.79-42.35T-581.41,2342.55Zm47.12,24.9q-17.09,9-25.63,20.26t-8.55,24.17q0,21.49,19.78,35t52.25,13.55q26.85,0,41.13-8.43t14.29-24q0-12.7-10.26-22.1t-35.64-19.41Zm71.78-74.46q13.92-6.84,20.75-15.38a30.07,30.07,0,0,0,6.84-19.29q0-14.9-14.16-24.66t-36.87-9.77q-22.21,0-35.27,7.57t-13.07,20q0,10,9.4,17.21t34.55,15.26Z" transform="translate(642.29 -2175.95)"/><path class="cls-1" d="M-581.41,2342.55q-22-14.65-32.47-31.62t-10.49-38.45q0-42.48,36.13-67.51t98.39-25q58.35,0,91.67,20.63t33.33,56.27q0,21-12,35.4T-412.46,2315q34.66,15.63,50.66,36.62t16,51.27q0,46.64-40,72.63t-112.06,26q-67.87,0-104.13-22.58t-36.25-64.58q0-24.9,13.79-42.35T-581.41,2342.55Zm47.12,24.9q-17.09,9-25.63,20.26t-8.55,24.17q0,21.49,19.78,35t52.25,13.55q26.85,0,41.13-8.43t14.29-24q0-12.7-10.26-22.1t-35.64-19.41Zm71.78-74.46q13.92-6.84,20.75-15.38a30.07,30.07,0,0,0,6.84-19.29q0-14.9-14.16-24.66t-36.87-9.77q-22.21,0-35.27,7.57t-13.07,20q0,10,9.4,17.21t34.55,15.26Z" transform="translate(642.29 -2175.95)"/><path class="cls-2" d="M-581.41,2342.55q-22-14.65-32.47-31.62t-10.49-38.45q0-42.48,36.13-67.51t98.39-25q58.35,0,91.67,20.63t33.33,56.27q0,21-12,35.4T-412.46,2315q34.66,15.63,50.66,36.62t16,51.27q0,46.64-40,72.63t-112.06,26q-67.87,0-104.13-22.58t-36.25-64.58q0-24.9,13.79-42.35T-581.41,2342.55Zm47.12,24.9q-17.09,9-25.63,20.26t-8.55,24.17q0,21.49,19.78,35t52.25,13.55q26.85,0,41.13-8.43t14.29-24q0-12.7-10.26-22.1t-35.64-19.41Zm71.78-74.46q13.92-6.84,20.75-15.38a30.07,30.07,0,0,0,6.84-19.29q0-14.9-14.16-24.66t-36.87-9.77q-22.21,0-35.27,7.57t-13.07,20q0,10,9.4,17.21t34.55,15.26Z" transform="translate(642.29 -2175.95)"/><path class="cls-3" d="M-581.41,2342.55q-22-14.65-32.47-31.62t-10.49-38.45q0-42.48,36.13-67.51t98.39-25q58.35,0,91.67,20.63t33.33,56.27q0,21-12,35.4T-412.46,2315q34.66,15.63,50.66,36.62t16,51.27q0,46.64-40,72.63t-112.06,26q-67.87,0-104.13-22.58t-36.25-64.58q0-24.9,13.79-42.35T-581.41,2342.55Zm47.12,24.9q-17.09,9-25.63,20.26t-8.55,24.17q0,21.49,19.78,35t52.25,13.55q26.85,0,41.13-8.43t14.29-24q0-12.7-10.26-22.1t-35.64-19.41Zm71.78-74.46q13.92-6.84,20.75-15.38a30.07,30.07,0,0,0,6.84-19.29q0-14.9-14.16-24.66t-36.87-9.77q-22.21,0-35.27,7.57t-13.07,20q0,10,9.4,17.21t34.55,15.26Z" transform="translate(642.29 -2175.95)"/></svg>