<svg id="Camada_1" data-name="Camada 1" xmlns="http://www.w3.org/2000/svg" viewBox="0 0 308.9 330.02"><defs><style>.cls-1{fill:#211915;}.cls-2{fill:#98691f;}.cls-3{fill:none;stroke:#f7f7f8;stroke-miterlimit:10;stroke-width:8px;}</style></defs><path class="cls-1" d="M262.47,2361.59a160.76,160.76,0,0,1-34.54,14.28,130.66,130.66,0,0,1-35,4.76q-46.63,0-75.31-26.73t-28.69-70.19q0-47.37,34.3-75.69t92.16-28.32q69.35,0,108.89,41.14t39.55,112.92q0,77.14-43,122.56t-116,45.41q-47.13,0-76.05-19.9t-28.93-51.64q0-19.28,13.06-30.64t35-11.35q20,0,33,10.62t12.94,26.49a32.73,32.73,0,0,1-4.27,17q-4.28,7.2-13.06,12.33a59.58,59.58,0,0,0,10.25,2.8,54.16,54.16,0,0,0,9.52.86q30,0,48.1-25.76t18.06-69.21Zm-40-139.89q-15.62,0-25,15t-9.4,39.92q0,25.14,9.4,40.16t25,15q15.87,0,25.39-14.89t9.53-40.28q0-25.4-9.53-40.16T222.43,2221.7Z" transform="translate(-54.89 -2175.7)"/><path class="cls-1" d="M232.47,2361.59a160.76,160.76,0,0,1-34.54,14.28,130.66,130.66,0,0,1-35,4.76q-46.63,0-75.31-26.73t-28.69-70.19q0-47.37,34.3-75.69t92.16-28.32q69.35,0,108.89,41.14t39.55,112.92q0,77.14-43,122.56t-116,45.41q-47.13,0-76.05-19.9t-28.93-51.64q0-19.28,13.06-30.64t35-11.35q20,0,33,10.62t12.94,26.49a32.73,32.73,0,0,1-4.27,17q-4.28,7.2-13.06,12.33a59.58,59.58,0,0,0,10.25,2.8,54.16,54.16,0,0,0,9.52.86q30,0,48.1-25.76t18.06-69.21Zm-40-139.89q-15.62,0-25,15t-9.4,39.92q0,25.14,9.4,40.16t25,15q15.87,0,25.39-14.89t9.53-40.28q0-25.4-9.53-40.16T192.43,2221.7Z" transform="translate(-54.89 -2175.7)"/><path class="cls-1" d="M232.47,2361.59a160.76,160.76,0,0,1-34.54,14.28,130.66,130.66,0,0,1-35,4.76q-46.63,0-75.31-26.73t-28.69-70.19q0-47.37,34.3-75.69t92.16-28.32q69.35,0,108.89,41.14t39.55,112.92q0,77.14-43,122.56t-116,45.41q-47.13,0-76.05-19.9t-28.93-51.64q0-19.28,13.06-30.64t35-11.35q20,0,33,10.62t12.94,26.49a32.73,32.73,0,0,1-4.27,17q-4.28,7.2-13.06,12.33a59.58,59.58,0,0,0,10.25,2.8,54.16,54.16,0,0,0,9.52.86q30,0,48.1-25.76t18.06-69.21Zm-40-139.89q-15.62,0-25,15t-9.4,39.92q0,25.14,9.4,40.16t25,15q15.87,0,25.39-14.89t9.53-40.28q0-25.4-9.53-40.16T192.43,2221.7Z" transform="translate(-54.89 -2175.7)"/><path class="cls-2" d="M232.47,2361.59a160.76,160.76,0,0,1-34.54,14.28,130.66,130.66,0,0,1-35,4.76q-46.63,0-75.31-26.73t-28.69-70.19q0-47.37,34.3-75.69t92.16-28.32q69.35,0,108.89,41.14t39.55,112.92q0,77.14-43,122.56t-116,45.41q-47.13,0-76.05-19.9t-28.93-51.64q0-19.28,13.06-30.64t35-11.35q20,0,33,10.62t12.94,26.49a32.73,32.73,0,0,1-4.27,17q-4.28,7.2-13.06,12.33a59.58,59.58,0,0,0,10.25,2.8,54.16,54.16,0,0,0,9.52.86q30,0,48.1-25.76t18.06-69.21Zm-40-139.89q-15.62,0-25,15t-9.4,39.92q0,25.14,9.4,40.16t25,15q15.87,0,25.39-14.89t9.53-40.28q0-25.4-9.53-40.16T192.43,2221.7Z" transform="translate(-54.89 -2175.7)"/><path class="cls-3" d="M232.47,2361.59a160.76,160.76,0,0,1-34.54,14.28,130.66,130.66,0,0,1-35,4.76q-46.63,0-75.31-26.73t-28.69-70.19q0-47.37,34.3-75.69t92.16-28.32q69.35,0,108.89,41.14t39.55,112.92q0,77.14-43,122.56t-116,45.41q-47.13,0-76.05-19.9t-28.93-51.64q0-19.28,13.06-30.64t35-11.35q20,0,33,10.62t12.94,26.49a32.73,32.73,0,0,1-4.27,17q-4.28,7.2-13.06,12.33a59.58,59.58,0,0,0,10.25,2.8,54.16,54.16,0,0,0,9.52.86q30,0,48.1-25.76t18.06-69.21Zm-40-139.89q-15.62,0-25,15t-9.4,39.92q0,25.14,9.4,40.16t25,15q15.87,0,25.39-14.89t9.53-40.28q0-25.4-9.53-40.16T192.43,2221.7Z" transform="translate(-54.89 -2175.7)"/></svg>