<svg id="Camada_1" data-name="Camada 1" xmlns="http://www.w3.org/2000/svg" xmlns:xlink="http://www.w3.org/1999/xlink" viewBox="0 0 753.9 715.11"><defs><style>.cls-1{fill:#211915;}.cls-1,.cls-2{stroke:#211915;}.cls-1,.cls-2,.cls-3{stroke-miterlimit:10;}.cls-2{fill:url(#Gradiente_sem_nome_54);}.cls-3{fill:none;stroke:#fff;stroke-width:8px;}.cls-4{fill:url(#Gradiente_sem_nome_62);}.cls-5{fill:url(#Gradiente_sem_nome_64);}</style><linearGradient id="Gradiente_sem_nome_54" x1="935.18" y1="1405.48" x2="1350.28" y2="1405.48" gradientUnits="userSpaceOnUse"><stop offset="0"/><stop offset="1" stop-color="#444242"/></linearGradient><linearGradient id="Gradiente_sem_nome_62" x1="1209.62" y1="1389.47" x2="1336.15" y2="1389.47" gradientUnits="userSpaceOnUse"><stop offset="0"/><stop offset="1" stop-color="#fff"/></linearGradient><linearGradient id="Gradiente_sem_nome_64" x1="1244.36" y1="1158.8" x2="1335.38" y2="1158.8" gradientUnits="userSpaceOnUse"><stop offset="0" stop-color="#211915"/><stop offset="1" stop-color="#fff"/></linearGradient></defs><path class="cls-1" d="M1718.81,1411.63A179.85,179.85,0,0,0,1539,1231.78a179.85,179.85,0,0,0-359.7,0A179.85,179.85,0,1,0,1277.91,1562l-113.75,197h389.9l-113.75-197a179.85,179.85,0,0,0,278.5-150.38Z" transform="translate(-965.41 -1047.93)"/><path class="cls-2" d="M1688.81,1411.63A179.85,179.85,0,0,0,1509,1231.78a179.85,179.85,0,0,0-359.7,0A179.85,179.85,0,1,0,1247.91,1562l-113.75,197h389.9l-113.75-197a179.85,179.85,0,0,0,278.5-150.38Z" transform="translate(-965.41 -1047.93)"/><path class="cls-3" d="M1688.81,1411.63A179.85,179.85,0,0,0,1509,1231.78a179.85,179.85,0,0,0-359.7,0A179.85,179.85,0,1,0,1247.91,1562l-113.75,197h389.9l-113.75-197a179.85,179.85,0,0,0,278.5-150.38Z" transform="translate(-965.41 -1047.93)"/><path class="cls-4" d="M1251.31,1336.24v-34.42q24.24-1.87,38.39-9.35t19.19-20.9h62.8v185.87q0,9.64,5.24,12.76t22.87,3.12h9.11v34h-157.6v-34h10.86q18.8,0,24.62-3.21t5.81-18.91v-115Z" transform="translate(-965.41 -1047.93)"/><path class="cls-5" d="M1329.11,1098.59h0c7,0,12.6,6,12.6,13.28V1132c0,7.34,5.65,13.28,12.61,13.28h16.11c7,0,12.6,5.94,12.6,13.27v.37c0,7.34-5.64,13.28-12.6,13.28h-16.11c-7,0-12.61,5.94-12.61,13.27v20.3c0,7.33-5.64,13.27-12.6,13.27h0c-7,0-12.6-5.94-12.6-13.27v-20.3c0-7.33-5.64-13.27-12.6-13.27h-16.12c-7,0-12.6-5.94-12.6-13.28v-.37c0-7.33,5.64-13.27,12.6-13.27h16.12c7,0,12.6-5.94,12.6-13.28v-20.09C1316.51,1104.54,1322.15,1098.59,1329.11,1098.59Z" transform="translate(-965.41 -1047.93)"/></svg>