<svg id="Camada_1" data-name="Camada 1" xmlns="http://www.w3.org/2000/svg" xmlns:xlink="http://www.w3.org/1999/xlink" viewBox="0 0 742.76 718.42"><defs><style>.cls-1{fill:#211915;}.cls-2{stroke:#c13715;fill:url(#Gradiente_sem_nome_10);}.cls-2,.cls-3{stroke-miterlimit:10;}.cls-3{fill:none;stroke:#fff;stroke-width:8px;}.cls-4{fill:url(#Gradiente_sem_nome_53);}</style><linearGradient id="Gradiente_sem_nome_10" x1="54.76" y1="1405.48" x2="525.66" y2="1405.48" gradientTransform="translate(1140.27 58.1) rotate(45)" gradientUnits="userSpaceOnUse"><stop offset="0" stop-color="#96171d"/><stop offset="0.31" stop-color="#9e1d1b"/><stop offset="0.8" stop-color="#b52e17"/><stop offset="1" stop-color="#c13715"/></linearGradient><linearGradient id="Gradiente_sem_nome_53" x1="322.6" y1="1402.6" x2="504.25" y2="1402.6" gradientUnits="userSpaceOnUse"><stop offset="0"/><stop offset="1" stop-color="#444242"/></linearGradient></defs><rect class="cls-1" x="280" y="1155.48" width="500" height="500" transform="translate(-979.38 -259.85) rotate(-45)"/><rect class="cls-2" x="250" y="1155.48" width="500" height="500" transform="translate(-988.17 -281.06) rotate(-45)"/><rect class="cls-3" x="250" y="1155.48" width="500" height="500" transform="translate(-988.17 -281.06) rotate(-45)"/><path class="cls-4" d="M379,1416.88v-28.56a25.51,25.51,0,0,1,25.52-25.51h196.6a25.51,25.51,0,0,1,25.52,25.51v28.56a25.51,25.51,0,0,1-25.52,25.51H404.56A25.51,25.51,0,0,1,379,1416.88Z" transform="translate(-140.79 -1046.27)"/></svg>