<svg id="Camada_1" data-name="Camada 1" xmlns="http://www.w3.org/2000/svg" xmlns:xlink="http://www.w3.org/1999/xlink" viewBox="0 0 2524 1508"><defs><style>.cls-1{fill:url(#Gradiente_sem_nome_16);}.cls-2{fill:#211915;}.cls-3{fill:url(#Gradiente_sem_nome_15);}.cls-4,.cls-5{fill:none;stroke-width:8px;}.cls-4{stroke:#fff;}.cls-5{stroke:#211915;}.cls-6{fill:#fff;}</style><linearGradient id="Gradiente_sem_nome_16" x1="-1401.96" y1="2326.84" x2="1098.04" y2="2326.84" gradientUnits="userSpaceOnUse"><stop offset="0" stop-color="#9a999e"/><stop offset="1" stop-color="#fff"/></linearGradient><linearGradient id="Gradiente_sem_nome_15" x1="-1401.96" y1="1576.84" x2="1098.04" y2="1576.84" gradientUnits="userSpaceOnUse"><stop offset="0" stop-color="#211915"/><stop offset="1" stop-color="#444242"/></linearGradient></defs><path class="cls-1" d="M972.19,2776.84h-2248.3A125.84,125.84,0,0,1-1402,2651V1876.84H1098V2651A125.84,125.84,0,0,1,972.19,2776.84Z" transform="translate(1405.96 -1272.84)"/><path class="cls-2" d="M1118,1876.84H-1382V1402.69a125.84,125.84,0,0,1,125.85-125.85H992.19A125.84,125.84,0,0,1,1118,1402.69Z" transform="translate(1405.96 -1272.84)"/><path class="cls-2" d="M992.19,2776.84h-2248.3A125.84,125.84,0,0,1-1382,2651V1876.84H1118V2651A125.84,125.84,0,0,1,992.19,2776.84Z" transform="translate(1405.96 -1272.84)"/><path class="cls-3" d="M1098,1876.84H-1402V1402.69a125.84,125.84,0,0,1,125.85-125.85H972.19A125.84,125.84,0,0,1,1098,1402.69Z" transform="translate(1405.96 -1272.84)"/><path class="cls-1" d="M972.19,2776.84h-2248.3A125.84,125.84,0,0,1-1402,2651V1876.84H1098V2651A125.84,125.84,0,0,1,972.19,2776.84Z" transform="translate(1405.96 -1272.84)"/><path class="cls-4" d="M-1402,1876.84V1402.69a125.84,125.84,0,0,1,125.85-125.85H972.19A125.84,125.84,0,0,1,1098,1402.69v474.15" transform="translate(1405.96 -1272.84)"/><path class="cls-5" d="M1098,1876.84V2651a125.84,125.84,0,0,1-125.85,125.85h-2248.3A125.84,125.84,0,0,1-1402,2651V1876.84" transform="translate(1405.96 -1272.84)"/><path class="cls-6" d="M-977.35,1523.23q-5.48-17-13.38-24.91t-19.82-7.91h-12.7v-37.89h160.74v37.89h-14.84c-7.68,0-12.86.76-15.53,2.25s-4,4.14-4,7.91a49.91,49.91,0,0,0,1.17,10v.39L-853.33,1648l44.53-137.69q1-3.33,1.47-5.77a21.67,21.67,0,0,0,.49-4c0-3.91-1.34-6.57-4-8s-8-2.15-16.11-2.15h-13.48v-37.89h124.81v37.89h-9.77q-12.5,0-19.14,5.38t-11.52,20.6l-67.58,204.49h-91.6Z" transform="translate(1405.96 -1272.84)"/><path class="cls-6" d="M-610.36,1667q0,11.52,3.62,15.13t15.13,3.62h6.84v35.15H-716v-35.15h8q11.52,0,15.13-3.62t3.62-15.13v-80.86q0-11.73-3.62-15.24t-15.13-3.51h-8V1532h105.66Zm-80.86-186.14a35.23,35.23,0,0,1,10.45-25.78,34.52,34.52,0,0,1,25.49-10.54,34.68,34.68,0,0,1,25.59,10.64,35.17,35.17,0,0,1,10.54,25.68,34.84,34.84,0,0,1-10.54,25.59A34.86,34.86,0,0,1-655.28,1517q-15.24,0-25.59-10.35T-691.22,1480.84Z" transform="translate(1405.96 -1272.84)"/><path class="cls-6" d="M-549.62,1567H-576v-35h1.56q23.82,0,37-17.19t19.43-56.25h47.27V1532H-415v35h-55.66v102.34c0,7.69,1.14,13.31,3.42,16.9s5.82,5.37,10.64,5.37q9,0,12.5-8.5t3.52-33.89v-17.57h34.37v25.58q0,38.86-16.3,55.27t-54.2,16.41q-20.52,0-35.84-6a59,59,0,0,1-24.91-17.67,48.46,48.46,0,0,1-9.27-17.68q-2.84-9.86-2.84-33.88Z" transform="translate(1405.96 -1272.84)"/><path class="cls-6" d="M-270.71,1524.79q53.32,0,84.28,27.34t31,74.42q0,46.88-30.76,74t-84.08,27.15q-53.71,0-84.08-27t-30.37-74.22q0-47.46,30.37-74.61T-270.71,1524.79Zm-43.16-19.14,57.61-61.13q10.55-11.32,17.58-15.53a28.52,28.52,0,0,1,14.85-4.2,21.44,21.44,0,0,1,15.91,6.44,21.94,21.94,0,0,1,6.35,16,19.93,19.93,0,0,1-5,13.28q-5,5.87-16.11,11.52l-67.58,33.6Zm73,120.9q0-36.52-6.73-50.49t-23.15-14q-16,0-22.66,14t-6.64,50.49q0,36.53,6.74,50.39t23.34,13.86q16,0,22.56-13.76T-240.83,1626.55Z" transform="translate(1405.96 -1272.84)"/><path class="cls-6" d="M-36.73,1550.57q10.15-12.69,22.47-18.94a57.34,57.34,0,0,1,26.36-6.25q21.48,0,34.38,12.59t12.89,33.69q0,18.16-10.26,29.11t-27,10.93q-13.27,0-22.16-8.4A27.54,27.54,0,0,1-9,1582.41a26.42,26.42,0,0,1,4.3-15q4.29-6.45,13.08-10.94a43.22,43.22,0,0,0-4.49-.88,31.24,31.24,0,0,0-4.1-.29q-16,0-25.29,14.94t-9.28,41.11V1667q0,11.52,3.71,15.13t15.23,3.62h12.7v35.15H-139.07v-35.15h6.84q11.52,0,15.13-3.62t3.62-15.13v-80.86q0-11.73-3.62-15.24t-15.13-3.51h-6.84V1532H-36.73Z" transform="translate(1405.96 -1272.84)"/><path class="cls-6" d="M173.43,1667q0,11.52,3.61,15.13t15.14,3.62H199v35.15H67.77v-35.15h8q11.53,0,15.14-3.62T94.52,1667v-80.86q0-11.73-3.61-15.24t-15.14-3.51h-8V1532H173.43ZM92.57,1480.84A35.23,35.23,0,0,1,103,1455.06a36.09,36.09,0,0,1,51.08.1A36.19,36.19,0,0,1,128.51,1517q-15.24,0-25.59-10.35T92.57,1480.84Z" transform="translate(1405.96 -1272.84)"/><path class="cls-6" d="M343.16,1701q-10.37,12.88-28.13,19.83t-40.82,6.93q-29.88,0-46.09-13.87t-16.21-39.45q0-25,14.45-37.5t55.47-19.53q34.17-5.86,43.07-12.89t8.88-21.68q0-14.46-10-23t-27.15-8.5a42.38,42.38,0,0,0-11.52,1.66,62.31,62.31,0,0,0-12.11,5q10.54,3.13,15.72,9.48t5.18,16.3a24.26,24.26,0,0,1-9.57,19.93q-9.57,7.6-25.39,7.61-18.75,0-28.91-8.79t-10.15-24.8q0-24.62,25.39-38.48t70.89-13.86a230.31,230.31,0,0,1,44.63,3.9q19.64,3.92,29.79,10.74,12.3,8.2,17.19,19.44t4.88,35.45v72.85q0,7.42,1.66,9.67t6.35,2.24q4.68,0,6.54-2.34t1.86-9.57v-22.85h26.36v24.8q0,31.05-14.06,44.53t-45.9,13.48q-18,0-30.76-6.54T343.16,1701Zm-8.4-67.77q-7,3.9-18.75,9.57-26.56,12.88-26.56,24.61a17.29,17.29,0,0,0,5.86,13.47q5.85,5.28,15,5.28,11.31,0,18.06-7.33t6.74-19.82v-1.37Z" transform="translate(1405.96 -1272.84)"/><path class="cls-6" d="M499,1723.62H470.89v-69.14h35.35q6.25,18.36,19.83,27.54t34.47,9.18q13.86,0,20.12-3.81t6.25-12q0-11-31.25-20.12-10.54-3.12-16.6-5.08-45.31-14.45-58.7-27.15T467,1588.46q0-29.1,24.12-46.39t65.52-17.28a166.49,166.49,0,0,1,35.55,3.71,163.27,163.27,0,0,1,33.2,11.13l5.67-11.13h29.49v59.57H629.29a56.28,56.28,0,0,0-22.07-21.58,64.13,64.13,0,0,0-31.05-7.52q-11.92,0-18.75,3.81t-6.84,10.45q0,12.11,29.88,21.09,7.62,2.34,11.92,3.71,3.71,1.17,10.35,3.13,32.22,10,46.29,19.33a43.76,43.76,0,0,1,15.33,17.78,56.78,56.78,0,0,1,5.37,25q0,30.07-23.44,47.26t-64.45,17.19a169.32,169.32,0,0,1-41.31-4.88A124.44,124.44,0,0,1,506.24,1709Z" transform="translate(1405.96 -1272.84)"/></svg>