<svg id="Camada_1" data-name="Camada 1" xmlns="http://www.w3.org/2000/svg" xmlns:xlink="http://www.w3.org/1999/xlink" viewBox="0 0 2018.42 1731.75"><defs><style>.cls-1,.cls-4{fill:#211915;}.cls-2,.cls-6{stroke:#c13715;}.cls-2,.cls-3,.cls-4,.cls-5,.cls-6,.cls-7{stroke-miterlimit:10;}.cls-2{fill:url(#Gradiente_sem_nome_10);}.cls-3{fill:none;stroke:#fff;stroke-width:8px;}.cls-4,.cls-5,.cls-7{stroke:#211915;}.cls-5{fill:url(#Gradiente_sem_nome_54);}.cls-6{fill:url(#Gradiente_sem_nome_10-2);}.cls-7{fill:url(#Gradiente_sem_nome_54-2);}</style><linearGradient id="Gradiente_sem_nome_10" x1="38.6" y1="2537.44" x2="518.09" y2="2537.44" gradientTransform="translate(1938.33 395.33) rotate(45)" gradientUnits="userSpaceOnUse"><stop offset="0" stop-color="#96171d"/><stop offset="0.31" stop-color="#9e1d1b"/><stop offset="0.8" stop-color="#b52e17"/><stop offset="1" stop-color="#c13715"/></linearGradient><linearGradient id="Gradiente_sem_nome_54" x1="722.7" y1="1930.12" x2="1138.14" y2="1930.12" gradientUnits="userSpaceOnUse"><stop offset="0"/><stop offset="1" stop-color="#444242"/></linearGradient><linearGradient id="Gradiente_sem_nome_10-2" x1="131.96" y1="1530.4" x2="851.96" y2="1530.4" gradientTransform="matrix(1, 0, 0, 1, 0, 0)" xlink:href="#Gradiente_sem_nome_10"/><linearGradient id="Gradiente_sem_nome_54-2" x1="-506.96" y1="1913.52" x2="213.04" y2="1913.52" xlink:href="#Gradiente_sem_nome_54"/></defs><rect class="cls-1" x="267.4" y="2282.88" width="509.12" height="509.12" transform="translate(-1130.4 -54.12) rotate(-45)"/><rect class="cls-2" x="237.4" y="2282.88" width="509.12" height="509.12" transform="translate(-1139.19 -75.33) rotate(-45)"/><rect class="cls-3" x="241.96" y="2287.44" width="500" height="500" transform="translate(-1139.19 -75.33) rotate(-45)"/><path class="cls-4" d="M1507,1936.38c0-101.14-80.59-183.13-180-183.13,0-101.14-80.59-183.13-180-183.13s-180,82-180,183.13c-99.41,0-180,82-180,183.13s80.59,183.13,180,183.13a177,177,0,0,0,98.74-30L951.85,2290.12h390.22l-113.85-200.61a177,177,0,0,0,98.74,30C1426.37,2119.51,1507,2037.52,1507,1936.38Z" transform="translate(510.96 -1166.4)"/><path class="cls-5" d="M1477,1936.38c0-101.14-80.59-183.13-180-183.13,0-101.14-80.59-183.13-180-183.13s-180,82-180,183.13c-99.41,0-180,82-180,183.13s80.59,183.13,180,183.13a177,177,0,0,0,98.74-30L921.85,2290.12h390.22l-113.85-200.61a177,177,0,0,0,98.74,30C1396.37,2119.51,1477,2037.52,1477,1936.38Z" transform="translate(510.96 -1166.4)"/><path class="cls-3" d="M1476.66,1936.27a179.85,179.85,0,0,0-179.85-179.85,179.85,179.85,0,1,0-359.7,0,179.85,179.85,0,1,0,98.65,330.23L922,2283.67h389.9l-113.75-197a179.85,179.85,0,0,0,278.5-150.38Z" transform="translate(510.96 -1166.4)"/><path class="cls-4" d="M822.44,1556.24c-3.07,3.4-6.21,6.65-9.41,9.79l.3.33L522,1890.4l-286.88-319-4.49-5,.29-.33c-3.19-3.14-6.34-6.39-9.4-9.79-79.36-88.27-79.36-231.38,0-319.64s208.05-88.27,287.41,0q6.25,7,11.85,14.36l1.22,1.37,1.22-1.37q5.6-7.38,11.84-14.36c79.37-88.27,208.05-88.27,287.42,0S901.8,1468,822.44,1556.24Z" transform="translate(510.96 -1166.4)"/><path class="cls-6" d="M792.44,1556.24c-3.07,3.4-6.21,6.65-9.41,9.79l.3.33L492,1890.4l-286.88-319-4.49-5,.29-.33c-3.19-3.14-6.34-6.39-9.4-9.79-79.36-88.27-79.36-231.38,0-319.64s208.05-88.27,287.41,0q6.25,7,11.85,14.36l1.22,1.37,1.22-1.37q5.6-7.38,11.84-14.36c79.37-88.27,208.05-88.27,287.42,0S871.8,1468,792.44,1556.24Z" transform="translate(510.96 -1166.4)"/><path class="cls-3" d="M792.44,1556.24c-3.07,3.4-6.21,6.65-9.41,9.79l.3.33L492,1890.4l-286.88-319-4.49-5,.29-.33c-3.19-3.14-6.34-6.39-9.4-9.79-79.36-88.27-79.36-231.38,0-319.64s208.05-88.27,287.41,0q6.25,7,11.85,14.36l1.22,1.37,1.22-1.37q5.6-7.38,11.84-14.36c79.37-88.27,208.05-88.27,287.42,0S871.8,1468,792.44,1556.24Z" transform="translate(510.96 -1166.4)"/><path class="cls-4" d="M183.52,2080.17c79.36-71.1,79.36-186.37,0-257.48-3.06-2.74-6.21-5.36-9.4-7.89l.29-.27-4.49-4-286.88-257-291.37,261,.3.27c-3.2,2.53-6.34,5.15-9.41,7.89-79.36,71.11-79.36,186.38,0,257.48,56.37,50.49,137.6,65.11,208.39,43.88l-96.33,149.47H71.46l-96.33-149.47C45.92,2145.28,127.15,2130.66,183.52,2080.17Z" transform="translate(510.96 -1166.4)"/><path class="cls-7" d="M153.52,2080.17c79.36-71.1,79.36-186.37,0-257.48-3.06-2.74-6.21-5.36-9.4-7.89l.29-.27-4.49-4-286.88-257-291.37,261,.3.27c-3.2,2.53-6.34,5.15-9.41,7.89-79.36,71.11-79.36,186.38,0,257.48,56.37,50.49,137.6,65.11,208.39,43.88l-96.33,149.47H41.46l-96.33-149.47C15.92,2145.28,97.15,2130.66,153.52,2080.17Z" transform="translate(510.96 -1166.4)"/><path class="cls-3" d="M153.52,2080.17c79.36-71.1,79.36-186.37,0-257.48-3.06-2.74-6.21-5.36-9.4-7.89l.29-.27-4.49-4-286.88-257-291.37,261,.3.27c-3.2,2.53-6.34,5.15-9.41,7.89-79.36,71.11-79.36,186.38,0,257.48,56.37,50.49,137.6,65.11,208.39,43.88l-96.33,149.47H41.46l-96.33-149.47C15.92,2145.28,97.15,2130.66,153.52,2080.17Z" transform="translate(510.96 -1166.4)"/></svg>