<svg id="Camada_1" data-name="Camada 1" xmlns="http://www.w3.org/2000/svg" xmlns:xlink="http://www.w3.org/1999/xlink" viewBox="0 0 2672.55 2068.62"><defs><style>.cls-1,.cls-4{fill:#211915;}.cls-2,.cls-6{stroke:#c13715;}.cls-2,.cls-3,.cls-4,.cls-5,.cls-6,.cls-7{stroke-miterlimit:10;}.cls-2{fill:url(#Gradiente_sem_nome_10);}.cls-3{fill:none;stroke:#fff;stroke-width:8px;}.cls-4,.cls-5,.cls-7{stroke:#211915;}.cls-5{fill:url(#Gradiente_sem_nome_54);}.cls-6{fill:url(#Gradiente_sem_nome_10-2);}.cls-7{fill:url(#Gradiente_sem_nome_54-2);}.cls-8{fill:#98691f;}</style><linearGradient id="Gradiente_sem_nome_10" x1="211.56" y1="3303.34" x2="605.34" y2="3303.34" gradientTransform="translate(2506.83 554.66) rotate(45)" gradientUnits="userSpaceOnUse"><stop offset="0" stop-color="#96171d"/><stop offset="0.31" stop-color="#9e1d1b"/><stop offset="0.8" stop-color="#b52e17"/><stop offset="1" stop-color="#c13715"/></linearGradient><linearGradient id="Gradiente_sem_nome_54" x1="773.37" y1="2804.59" x2="1114.55" y2="2804.59" gradientUnits="userSpaceOnUse"><stop offset="0"/><stop offset="1" stop-color="#444242"/></linearGradient><linearGradient id="Gradiente_sem_nome_10-2" x1="288.23" y1="2476.32" x2="879.53" y2="2476.32" gradientTransform="matrix(1, 0, 0, 1, 0, 0)" xlink:href="#Gradiente_sem_nome_10"/><linearGradient id="Gradiente_sem_nome_54-2" x1="-236.48" y1="2790.95" x2="354.82" y2="2790.95" xlink:href="#Gradiente_sem_nome_54"/></defs><rect class="cls-1" x="399.46" y="3094.29" width="418.11" height="418.11" transform="translate(-1402.75 -133.27) rotate(-45)"/><rect class="cls-2" x="374.82" y="3094.29" width="418.11" height="418.11" transform="translate(-1409.97 -150.69) rotate(-45)"/><rect class="cls-3" x="378.57" y="3098.03" width="410.62" height="410.62" transform="translate(-1409.97 -150.69) rotate(-45)"/><path class="cls-4" d="M1417.44,2809.73c0-83.06-66.18-150.4-147.82-150.4,0-83.06-66.18-150.39-147.83-150.39S974,2576.27,974,2659.33c-81.64,0-147.82,67.34-147.82,150.4S892.33,2960.12,974,2960.12a145.35,145.35,0,0,0,81.09-24.64l-93.5,164.75H1282l-93.5-164.75a145.35,145.35,0,0,0,81.09,24.64C1351.26,2960.12,1417.44,2892.79,1417.44,2809.73Z" transform="translate(754.83 -1531.08)"/><path class="cls-5" d="M1392.81,2809.73c0-83.06-66.19-150.4-147.83-150.4,0-83.06-66.18-150.39-147.82-150.39s-147.83,67.33-147.83,150.39c-81.64,0-147.82,67.34-147.82,150.4s66.18,150.39,147.82,150.39a145.32,145.32,0,0,0,81.09-24.64l-93.5,164.75h320.47l-93.49-164.75a145.32,145.32,0,0,0,81.08,24.64C1326.62,2960.12,1392.81,2892.79,1392.81,2809.73Z" transform="translate(754.83 -1531.08)"/><path class="cls-3" d="M1392.56,2809.63a147.7,147.7,0,0,0-147.7-147.7,147.7,147.7,0,1,0-295.4,0,147.7,147.7,0,1,0,81,271.21l-93.41,161.8h320.2l-93.42-161.8a147.72,147.72,0,0,0,228.72-123.51Z" transform="translate(754.83 -1531.08)"/><path class="cls-4" d="M855.28,2497.54c-2.52,2.79-5.09,5.46-7.72,8l.24.27L608.52,2772l-235.6-262-3.69-4.11.24-.27c-2.62-2.58-5.21-5.25-7.72-8-65.18-72.49-65.18-190,0-262.5s170.86-72.49,236,0c3.42,3.8,6.66,7.75,9.72,11.79l1,1.12,1-1.12c3.07-4,6.3-8,9.72-11.79,65.19-72.49,170.86-72.49,236,0S920.46,2425.05,855.28,2497.54Z" transform="translate(754.83 -1531.08)"/><path class="cls-6" d="M830.64,2497.54c-2.51,2.79-5.09,5.46-7.72,8l.25.27L583.88,2772l-235.6-262-3.69-4.11.24-.27c-2.62-2.58-5.2-5.25-7.71-8-65.18-72.49-65.18-190,0-262.5s170.85-72.49,236,0c3.42,3.8,6.66,7.75,9.72,11.79l1,1.12,1-1.12c3.07-4,6.3-8,9.72-11.79,65.19-72.49,170.87-72.49,236,0S895.82,2425.05,830.64,2497.54Z" transform="translate(754.83 -1531.08)"/><path class="cls-3" d="M830.64,2497.54c-2.51,2.79-5.09,5.46-7.72,8l.25.27L583.88,2772l-235.6-262-3.69-4.11.24-.27c-2.62-2.58-5.2-5.25-7.71-8-65.18-72.49-65.18-190,0-262.5s170.85-72.49,236,0c3.42,3.8,6.66,7.75,9.72,11.79l1,1.12,1-1.12c3.07-4,6.3-8,9.72-11.79,65.19-72.49,170.87-72.49,236,0S895.82,2425.05,830.64,2497.54Z" transform="translate(754.83 -1531.08)"/><path class="cls-4" d="M330.57,2927.81c65.18-58.39,65.18-153,0-211.45-2.51-2.25-5.09-4.4-7.72-6.48l.24-.22-3.69-3.3L83.8,2495.31l-239.28,214.35.25.22c-2.63,2.08-5.21,4.23-7.73,6.48-65.17,58.4-65.17,153.06,0,211.45,46.29,41.47,113,53.47,171.14,36L-70.93,3086.6H238.55l-79.11-122.75C217.57,2981.29,284.28,2969.28,330.57,2927.81Z" transform="translate(754.83 -1531.08)"/><path class="cls-7" d="M305.93,2927.81c65.18-58.39,65.18-153,0-211.45-2.51-2.25-5.09-4.4-7.71-6.48l.24-.22-3.69-3.3L59.17,2495.31l-239.29,214.35.25.22c-2.63,2.08-5.21,4.23-7.72,6.48-65.18,58.4-65.18,153.06,0,211.45,46.29,41.47,113,53.47,171.13,36L-95.57,3086.6H213.91L134.8,2963.85C192.93,2981.29,259.64,2969.28,305.93,2927.81Z" transform="translate(754.83 -1531.08)"/><path class="cls-3" d="M305.93,2927.81c65.18-58.39,65.18-153,0-211.45-2.51-2.25-5.09-4.4-7.71-6.48l.24-.22-3.69-3.3L59.17,2495.31l-239.29,214.35.25.22c-2.63,2.08-5.21,4.23-7.72,6.48-65.18,58.4-65.18,153.06,0,211.45,46.29,41.47,113,53.47,171.13,36L-95.57,3086.6H213.91L134.8,2963.85C192.93,2981.29,259.64,2969.28,305.93,2927.81Z" transform="translate(754.83 -1531.08)"/><path class="cls-4" d="M-552.62,1849.86c-24.12,10.74-39.38,26.08-45.62,45.52s-3.06,42,9.27,67.76c.25.53.5,1.06.76,1.59q-31.18,14.93-62.08,30.68l-69.16-135.74A2977.48,2977.48,0,0,1-242,1666.34q22.36,72.81,44.74,145.63-32.26,9.9-64.34,20.61l-.56-1.67c-8.95-26.86-22.3-45.29-40.33-55s-39.63-10.21-64.48-1.14q-9.79,3.57-19.59,7.23,43.33,116.1,86.65,232.21,8.1,21.69,16.29,24.74c5.46,2,15.35.4,29.73-4.75q17-6.08,34.07-11.92,9.24,27,18.49,54.05a2576.56,2576.56,0,0,0-258.36,104.37q-12.12-25.86-24.23-51.74,15.36-7.18,30.79-14.18c13.26-6,21.38-11.33,24.34-16.15s1.13-14.83-5.51-30q-49.58-113.58-99.13-227.17Q-543,1845.6-552.62,1849.86Z" transform="translate(754.83 -1531.08)"/><path class="cls-4" d="M-72.84,1940.85-130.95,1729q-6.2-22.6-14.3-26c-5.41-2.24-16.25-1.13-32.47,3.55q-11.49,3.32-23,6.73l-16.22-54.47a2975.82,2975.82,0,0,1,324.28-77c57.93-10.34,102.68-8.26,133.25,4.37s47.59,36,51.54,69.37c2.67,22.51-3.58,42.4-18.31,59.83s-36.72,31-66,41.25c30.86-1.37,52.56,4.19,64.94,16s21.48,41.6,27.41,89.08q2.7,21.51,7.6,29.31c3.26,5.21,7.85,7.45,13.81,6.74,5.74-.68,9.61-4.56,11.62-11.68s2.26-17.54.71-31.33c-.15-1.35-.51-3.58-1.06-6.66s-.93-5.4-1.1-7q21.87-2.46,43.77-4.56.26,2.63,1.09,8t1.08,8c3.55,37.34-2,65.16-16.21,83.63s-38.73,29.65-73.87,34.4c-37.33,5.08-65.58,2-85.3-10.14s-32.66-34.36-38.53-67.06q-3-16.57-5.93-33.16-7.11-39.8-20.7-48.51c-9.08-5.77-25.94-6.41-50.43-1.48q-19.64,4-39.23,8.22L66.7,1906.6q5,22.92,12.4,27c5,2.74,14.61,2.56,29-.38q11.88-2.42,23.79-4.72,5.43,28.05,10.87,56.09-123.5,23.91-244.88,60l-16.29-54.76q10.34-3.08,20.7-6.07c14.41-4.15,23.18-8.5,26.32-13.22S-68.71,1955.92-72.84,1940.85ZM34.7,1765.45q19.48-4.25,39-8.2c27.56-5.58,46.24-13,56.1-22.84s13.25-23.82,10.07-42.11c-3.49-20-11.25-33.14-23.4-39.29s-31.84-6.72-58.9-1.3q-22.82,4.59-45.58,9.54Z" transform="translate(754.83 -1531.08)"/><path class="cls-4" d="M582,1804.2c.59,31.06,6.2,52.72,16.61,65.08s27.67,18.44,52,18.6c28.8.2,49.59-5.37,62.61-17.29s20.17-31.85,21.25-60q3.43-91.19,6.88-182.39.9-23.7-5.77-29.23c-4.44-3.67-14.92-5.81-31.41-6.22q-12-.29-24-.49l.93-56.82q111.54,1.82,222.81,12-2.6,28.29-5.18,56.6-10.78-1-21.58-1.9c-16.45-1.37-27.17-.33-32.1,2.92s-7.91,12.12-8.92,26.53q-6.86,96.89-13.69,193.76c-3.07,42.89-21.94,74.16-55.39,94.78s-80.5,29.93-142.15,30.08c-56,.19-99.61-9-131.94-29.36s-50.42-50.13-53.34-90.29q-7.08-98.47-14.17-196.95-1.63-22.8-9.23-28c-5.07-3.43-16-4.54-32.64-3.12q-12,1-24,2.15l-5.31-56.59q144.51-13.55,289.68-13l-.21,56.84q-13.07,0-26.11,0c-17,.09-27.76,2.17-32.38,6s-6.78,13.45-6.49,28.69Q580.38,1715.46,582,1804.2Z" transform="translate(754.83 -1531.08)"/><path class="cls-4" d="M1347.08,1876.84c-15.83,51.6-44.51,86.63-84.71,106.48s-89.59,23.13-149.8,11.63c-70.51-13.39-122.07-39.07-156.68-80.52s-49.57-95.51-42.74-163.58c6.46-64.26,33.53-113.81,83.8-146.76,50.1-32.87,115.16-43.35,192-28.82a329.15,329.15,0,0,1,70.4,21.25,259.54,259.54,0,0,1,58.24,35q8.55-9.42,17.17-18.78,38.3,9.27,76.38,19.56-21.63,80-43.27,160.08-39.68-10.72-79.59-20.27c1.22-39.47-4.51-69.69-17.2-90.47s-33.33-34.26-61.61-39.94c-32.83-6.58-59,.9-77.91,21.87s-32.51,57.71-41.21,109.91c-9,54-8.26,94,1.58,120.06s30.08,41.93,61,48.19c28.13,5.7,53.14,1.31,75.67-13.45s39-37.68,49.13-69.2Q1312.54,1867.49,1347.08,1876.84Z" transform="translate(754.83 -1531.08)"/><path class="cls-4" d="M1401.39,1845.18c18.35-63.94,55.61-107.91,114.13-129.26,58.32-21.28,131-17.09,214,15.63,82.6,32.62,138.93,79.3,167.51,134.91,28.69,55.79,26.27,113.57-4,172.8s-74.73,95-131.15,109.72c-56.6,14.78-118.74,7.05-190-21.06-70.51-27.73-120.16-64.23-150.71-113.66C1390.75,1965,1383.12,1908.89,1401.39,1845.18Zm305.68-56.67c-30.23-11.91-56.66-8.94-78.59,8.49s-41.66,51.23-59.48,101.06c-18.15,50.77-24.83,89.74-20.6,116.87s19.66,45.67,46.51,56.25c27.24,10.74,51.35,7.93,73-8.8s43.15-49.32,64.22-98.09c21.22-49.12,30.1-87.66,26.08-115.65S1737.07,1800.36,1707.07,1788.51Z" transform="translate(754.83 -1531.08)"/><path class="cls-8" d="M-582.62,1849.86c-24.12,10.74-39.38,26.08-45.62,45.52s-3.06,42,9.27,67.76c.25.53.5,1.06.76,1.59q-31.18,14.93-62.08,30.68l-69.16-135.74A2977.48,2977.48,0,0,1-272,1666.34q22.36,72.81,44.74,145.63-32.27,9.9-64.34,20.61l-.56-1.67c-8.95-26.86-22.3-45.29-40.33-55s-39.63-10.21-64.48-1.14q-9.79,3.57-19.59,7.23,43.33,116.1,86.65,232.21,8.1,21.69,16.29,24.74c5.46,2,15.35.4,29.73-4.75q17-6.08,34.07-11.92,9.24,27,18.49,54.05a2576.56,2576.56,0,0,0-258.36,104.37q-12.12-25.86-24.23-51.74,15.36-7.18,30.79-14.18c13.26-6,21.38-11.33,24.34-16.15s1.13-14.83-5.51-30q-49.58-113.58-99.13-227.17Q-573,1845.6-582.62,1849.86Z" transform="translate(754.83 -1531.08)"/><path class="cls-8" d="M-102.84,1940.85-160.95,1729q-6.2-22.6-14.3-26c-5.41-2.24-16.25-1.13-32.47,3.55q-11.49,3.32-23,6.73l-16.22-54.47a2975.82,2975.82,0,0,1,324.28-77c57.93-10.34,102.68-8.26,133.25,4.37s47.59,36,51.54,69.37c2.67,22.51-3.58,42.4-18.31,59.83s-36.72,31-66,41.25c30.86-1.37,52.56,4.19,64.94,16s21.48,41.6,27.41,89.08q2.7,21.51,7.6,29.31c3.26,5.21,7.85,7.45,13.81,6.74,5.74-.68,9.61-4.56,11.62-11.68s2.26-17.54.71-31.33c-.15-1.35-.51-3.58-1.06-6.66s-.93-5.4-1.1-7q21.87-2.46,43.77-4.56.26,2.63,1.09,8t1.08,8c3.55,37.34-2,65.16-16.21,83.63s-38.73,29.65-73.87,34.4c-37.33,5.08-65.58,2-85.3-10.14s-32.66-34.36-38.53-67.06q-3-16.57-5.93-33.16-7.11-39.8-20.7-48.51c-9.08-5.77-25.94-6.41-50.43-1.48q-19.63,4-39.23,8.22L36.7,1906.6q5,22.92,12.4,27c4.95,2.74,14.61,2.56,29-.38q11.88-2.42,23.79-4.72,5.43,28.05,10.87,56.09-123.49,23.91-244.88,60l-16.29-54.76q10.34-3.08,20.7-6.07c14.41-4.15,23.18-8.5,26.32-13.22S-98.71,1955.92-102.84,1940.85ZM4.7,1765.45q19.49-4.25,39-8.2c27.56-5.58,46.24-13,56.1-22.84s13.25-23.82,10.07-42.11c-3.49-20-11.25-33.14-23.4-39.29s-31.84-6.72-58.9-1.3Q4.79,1656.3-18,1661.25Z" transform="translate(754.83 -1531.08)"/><path class="cls-8" d="M552,1804.2c.59,31.06,6.2,52.72,16.61,65.08s27.67,18.44,52,18.6c28.8.2,49.59-5.37,62.61-17.29s20.17-31.85,21.25-60q3.43-91.19,6.88-182.39.9-23.7-5.77-29.23c-4.44-3.67-14.92-5.81-31.41-6.22q-12-.29-24-.49l.93-56.82q111.53,1.82,222.81,12-2.6,28.29-5.18,56.6-10.78-1-21.58-1.9c-16.45-1.37-27.17-.33-32.1,2.92s-7.91,12.12-8.92,26.53q-6.86,96.89-13.69,193.76c-3.07,42.89-21.94,74.16-55.39,94.78s-80.5,29.93-142.15,30.08c-56,.19-99.61-9-131.94-29.36s-50.42-50.13-53.34-90.29q-7.08-98.47-14.17-196.95-1.63-22.8-9.23-28c-5.07-3.43-16-4.54-32.64-3.12q-12,1-24,2.15l-5.31-56.59q144.51-13.55,289.68-13l-.21,56.84q-13.07,0-26.11,0c-17,.09-27.76,2.17-32.38,6s-6.78,13.45-6.49,28.69Q550.38,1715.46,552,1804.2Z" transform="translate(754.83 -1531.08)"/><path class="cls-8" d="M1317.08,1876.84c-15.83,51.6-44.51,86.63-84.71,106.48s-89.59,23.13-149.8,11.63c-70.51-13.39-122.07-39.07-156.68-80.52s-49.57-95.51-42.74-163.58c6.46-64.26,33.53-113.81,83.8-146.76,50.1-32.87,115.16-43.35,192-28.82a329.15,329.15,0,0,1,70.4,21.25,259.54,259.54,0,0,1,58.24,35q8.55-9.42,17.17-18.78,38.3,9.27,76.38,19.56-21.63,80-43.27,160.08-39.68-10.72-79.59-20.27c1.22-39.47-4.51-69.69-17.2-90.47s-33.33-34.26-61.61-39.94c-32.83-6.58-59,.9-77.91,21.87s-32.51,57.71-41.21,109.91c-9,54-8.26,94,1.58,120.06s30.08,41.93,61,48.19c28.13,5.7,53.14,1.31,75.67-13.45s39-37.68,49.13-69.2Q1282.54,1867.49,1317.08,1876.84Z" transform="translate(754.83 -1531.08)"/><path class="cls-8" d="M1371.39,1845.18c18.35-63.94,55.61-107.91,114.13-129.26,58.32-21.28,131-17.09,214,15.63,82.6,32.62,138.93,79.3,167.51,134.91,28.69,55.79,26.27,113.57-4,172.8s-74.73,95-131.15,109.72c-56.6,14.78-118.74,7.05-190-21.06-70.51-27.73-120.16-64.23-150.71-113.66C1360.75,1965,1353.12,1908.89,1371.39,1845.18Zm305.68-56.67c-30.23-11.91-56.66-8.94-78.59,8.49s-41.66,51.23-59.48,101.06c-18.15,50.77-24.83,89.74-20.6,116.87s19.66,45.67,46.51,56.25c27.24,10.74,51.35,7.93,73-8.8s43.15-49.32,64.22-98.09c21.22-49.12,30.1-87.66,26.08-115.65S1707.07,1800.36,1677.07,1788.51Z" transform="translate(754.83 -1531.08)"/><path class="cls-3" d="M-582.62,1849.86c-24.12,10.74-39.38,26.08-45.62,45.52s-3.06,42,9.27,67.76c.25.53.5,1.06.76,1.59q-31.18,14.93-62.08,30.68l-69.16-135.74A2977.48,2977.48,0,0,1-272,1666.34q22.36,72.81,44.74,145.63-32.27,9.9-64.34,20.61l-.56-1.67c-8.95-26.86-22.3-45.29-40.33-55s-39.63-10.21-64.48-1.14q-9.79,3.57-19.59,7.23,43.33,116.1,86.65,232.21,8.1,21.69,16.29,24.74c5.46,2,15.35.4,29.73-4.75q17-6.08,34.07-11.92,9.24,27,18.49,54.05a2576.56,2576.56,0,0,0-258.36,104.37q-12.12-25.86-24.23-51.74,15.36-7.18,30.79-14.18c13.26-6,21.38-11.33,24.34-16.15s1.13-14.83-5.51-30q-49.58-113.58-99.13-227.17Q-573,1845.6-582.62,1849.86Z" transform="translate(754.83 -1531.08)"/><path class="cls-3" d="M-102.84,1940.85-160.95,1729q-6.2-22.6-14.3-26c-5.41-2.24-16.25-1.13-32.47,3.55q-11.49,3.32-23,6.73l-16.22-54.47a2975.82,2975.82,0,0,1,324.28-77c57.93-10.34,102.68-8.26,133.25,4.37s47.59,36,51.54,69.37c2.67,22.51-3.58,42.4-18.31,59.83s-36.72,31-66,41.25c30.86-1.37,52.56,4.19,64.94,16s21.48,41.6,27.41,89.08q2.7,21.51,7.6,29.31c3.26,5.21,7.85,7.45,13.81,6.74,5.74-.68,9.61-4.56,11.62-11.68s2.26-17.54.71-31.33c-.15-1.35-.51-3.58-1.06-6.66s-.93-5.4-1.1-7q21.87-2.46,43.77-4.56.26,2.63,1.09,8t1.08,8c3.55,37.34-2,65.16-16.21,83.63s-38.73,29.65-73.87,34.4c-37.33,5.08-65.58,2-85.3-10.14s-32.66-34.36-38.53-67.06q-3-16.57-5.93-33.16-7.11-39.8-20.7-48.51c-9.08-5.77-25.94-6.41-50.43-1.48q-19.63,4-39.23,8.22L36.7,1906.6q5,22.92,12.4,27c4.95,2.74,14.61,2.56,29-.38q11.88-2.42,23.79-4.72,5.43,28.05,10.87,56.09-123.49,23.91-244.88,60l-16.29-54.76q10.34-3.08,20.7-6.07c14.41-4.15,23.18-8.5,26.32-13.22S-98.71,1955.92-102.84,1940.85ZM4.7,1765.45q19.49-4.25,39-8.2c27.56-5.58,46.24-13,56.1-22.84s13.25-23.82,10.07-42.11c-3.49-20-11.25-33.14-23.4-39.29s-31.84-6.72-58.9-1.3Q4.79,1656.3-18,1661.25Z" transform="translate(754.83 -1531.08)"/><path class="cls-3" d="M552,1804.2c.59,31.06,6.2,52.72,16.61,65.08s27.67,18.44,52,18.6c28.8.2,49.59-5.37,62.61-17.29s20.17-31.85,21.25-60q3.43-91.19,6.88-182.39.9-23.7-5.77-29.23c-4.44-3.67-14.92-5.81-31.41-6.22q-12-.29-24-.49l.93-56.82q111.53,1.82,222.81,12-2.6,28.29-5.18,56.6-10.78-1-21.58-1.9c-16.45-1.37-27.17-.33-32.1,2.92s-7.91,12.12-8.92,26.53q-6.86,96.89-13.69,193.76c-3.07,42.89-21.94,74.16-55.39,94.78s-80.5,29.93-142.15,30.08c-56,.19-99.61-9-131.94-29.36s-50.42-50.13-53.34-90.29q-7.08-98.47-14.17-196.95-1.63-22.8-9.23-28c-5.07-3.43-16-4.54-32.64-3.12q-12,1-24,2.15l-5.31-56.59q144.51-13.55,289.68-13l-.21,56.84q-13.07,0-26.11,0c-17,.09-27.76,2.17-32.38,6s-6.78,13.45-6.49,28.69Q550.38,1715.46,552,1804.2Z" transform="translate(754.83 -1531.08)"/><path class="cls-3" d="M1317.08,1876.84c-15.83,51.6-44.51,86.63-84.71,106.48s-89.59,23.13-149.8,11.63c-70.51-13.39-122.07-39.07-156.68-80.52s-49.57-95.51-42.74-163.58c6.46-64.26,33.53-113.81,83.8-146.76,50.1-32.87,115.16-43.35,192-28.82a329.15,329.15,0,0,1,70.4,21.25,259.54,259.54,0,0,1,58.24,35q8.55-9.42,17.17-18.78,38.3,9.27,76.38,19.56-21.63,80-43.27,160.08-39.68-10.72-79.59-20.27c1.22-39.47-4.51-69.69-17.2-90.47s-33.33-34.26-61.61-39.94c-32.83-6.58-59,.9-77.91,21.87s-32.51,57.71-41.21,109.91c-9,54-8.26,94,1.58,120.06s30.08,41.93,61,48.19c28.13,5.7,53.14,1.31,75.67-13.45s39-37.68,49.13-69.2Q1282.54,1867.49,1317.08,1876.84Z" transform="translate(754.83 -1531.08)"/><path class="cls-3" d="M1371.39,1845.18c18.35-63.94,55.61-107.91,114.13-129.26,58.32-21.28,131-17.09,214,15.63,82.6,32.62,138.93,79.3,167.51,134.91,28.69,55.79,26.27,113.57-4,172.8s-74.73,95-131.15,109.72c-56.6,14.78-118.74,7.05-190-21.06-70.51-27.73-120.16-64.23-150.71-113.66C1360.75,1965,1353.12,1908.89,1371.39,1845.18Zm305.68-56.67c-30.23-11.91-56.66-8.94-78.59,8.49s-41.66,51.23-59.48,101.06c-18.15,50.77-24.83,89.74-20.6,116.87s19.66,45.67,46.51,56.25c27.24,10.74,51.35,7.93,73-8.8s43.15-49.32,64.22-98.09c21.22-49.12,30.1-87.66,26.08-115.65S1707.07,1800.36,1677.07,1788.51Z" transform="translate(754.83 -1531.08)"/></svg>