<svg id="Camada_1" data-name="Camada 1" xmlns="http://www.w3.org/2000/svg" xmlns:xlink="http://www.w3.org/1999/xlink" viewBox="0 0 2673.47 2063.39"><defs><style>.cls-1,.cls-9{fill:#211915;}.cls-2{fill:url(#Gradiente_sem_nome_139);}.cls-3{fill:url(#Gradiente_sem_nome_139-2);}.cls-4{fill:url(#Gradiente_sem_nome_139-3);}.cls-5{fill:url(#Gradiente_sem_nome_139-4);}.cls-6{fill:url(#Gradiente_sem_nome_139-5);}.cls-7{fill:none;stroke:#fff;stroke-width:8px;}.cls-10,.cls-11,.cls-12,.cls-7,.cls-8,.cls-9{stroke-miterlimit:10;}.cls-11,.cls-8{stroke:#c13715;}.cls-8{fill:url(#Gradiente_sem_nome_10);}.cls-10,.cls-12,.cls-9{stroke:#211915;}.cls-10{fill:url(#Gradiente_sem_nome_54);}.cls-11{fill:url(#Gradiente_sem_nome_10-2);}.cls-12{fill:url(#Gradiente_sem_nome_54-2);}</style><linearGradient id="Gradiente_sem_nome_139" x1="-904.1" y1="1699.29" x2="1732.57" y2="1699.29" gradientUnits="userSpaceOnUse"><stop offset="0"/><stop offset="1" stop-color="#181818"/></linearGradient><linearGradient id="Gradiente_sem_nome_139-2" x1="-904.1" y1="1585.64" x2="1732.57" y2="1585.64" xlink:href="#Gradiente_sem_nome_139"/><linearGradient id="Gradiente_sem_nome_139-3" x1="-904.1" y1="1518.45" x2="1732.57" y2="1518.45" xlink:href="#Gradiente_sem_nome_139"/><linearGradient id="Gradiente_sem_nome_139-4" x1="-904.1" y1="1561.01" x2="1732.57" y2="1561.01" xlink:href="#Gradiente_sem_nome_139"/><linearGradient id="Gradiente_sem_nome_139-5" x1="-904.1" y1="1705.36" x2="1732.57" y2="1705.36" xlink:href="#Gradiente_sem_nome_139"/><linearGradient id="Gradiente_sem_nome_10" x1="56.2" y1="3072.94" x2="449.98" y2="3072.94" gradientTransform="translate(2298.41 597.04) rotate(45)" gradientUnits="userSpaceOnUse"><stop offset="0" stop-color="#96171d"/><stop offset="0.31" stop-color="#9e1d1b"/><stop offset="0.8" stop-color="#b52e17"/><stop offset="1" stop-color="#c13715"/></linearGradient><linearGradient id="Gradiente_sem_nome_54" x1="618.01" y1="2574.19" x2="959.19" y2="2574.19" gradientUnits="userSpaceOnUse"><stop offset="0"/><stop offset="1" stop-color="#444242"/></linearGradient><linearGradient id="Gradiente_sem_nome_10-2" x1="132.87" y1="2245.92" x2="724.17" y2="2245.92" gradientTransform="matrix(1, 0, 0, 1, 0, 0)" xlink:href="#Gradiente_sem_nome_10"/><linearGradient id="Gradiente_sem_nome_54-2" x1="-391.84" y1="2560.55" x2="199.46" y2="2560.55" xlink:href="#Gradiente_sem_nome_54"/></defs><path class="cls-1" d="M-707.26,1625.65c-24.12,10.74-39.38,26.08-45.63,45.52s-3.06,42.06,9.27,67.76l.76,1.59q-31.18,14.93-62.08,30.68l-69.16-135.74a2977.59,2977.59,0,0,1,477.5-193.33l44.73,145.63q-32.26,9.9-64.34,20.61c-.18-.56-.37-1.11-.55-1.67-9-26.86-22.31-45.29-40.33-55s-39.63-10.21-64.48-1.14q-9.81,3.57-19.59,7.23L-454.52,1790q8.1,21.69,16.29,24.74c5.46,2,15.35.4,29.74-4.75q17-6.07,34.06-11.92,9.26,27,18.5,54A2576.72,2576.72,0,0,0-614.3,1956.46q-12.12-25.86-24.23-51.74,15.36-7.18,30.79-14.18c13.26-6,21.39-11.33,24.35-16.15s1.12-14.83-5.52-30.05q-49.56-113.58-99.13-227.17Q-697.67,1621.39-707.26,1625.65Z" transform="translate(910.91 -1305.91)"/><path class="cls-1" d="M-227.49,1716.64l-58.11-211.9q-6.18-22.6-14.3-26c-5.4-2.24-16.25-1.13-32.46,3.55q-11.5,3.32-23,6.73-8.1-27.24-16.21-54.47a2974.72,2974.72,0,0,1,324.28-77c57.93-10.34,102.67-8.26,133.24,4.37s47.6,36,51.54,69.37c2.67,22.51-3.58,42.4-18.31,59.83s-36.71,31-66,41.25c30.85-1.37,52.55,4.19,64.93,16.05s21.49,41.6,27.42,89.08q2.68,21.51,7.59,29.31c3.26,5.21,7.85,7.45,13.81,6.74q8.63-1,11.63-11.67t.71-31.34q-.22-2-1.07-6.66c-.56-3.08-.92-5.4-1.1-6.95q21.87-2.46,43.78-4.56.24,2.63,1.08,8c.55,3.58.92,6.24,1.08,8,3.56,37.34-2,65.16-16.2,83.63s-38.73,29.65-73.87,34.4c-37.34,5.08-65.58,2-85.31-10.14s-32.65-34.36-38.52-67.06L3.27,1636q-7.11-39.8-20.7-48.51c-9.07-5.77-25.93-6.41-50.42-1.48q-19.65,4-39.24,8.22l19.14,88.18q5,22.92,12.41,27c4.94,2.74,14.61,2.56,29-.38q11.9-2.41,23.8-4.72l10.86,56.09q-123.48,23.91-244.87,60l-16.3-54.76q10.33-3.08,20.7-6.07c14.41-4.15,23.19-8.5,26.32-13.22S-223.36,1731.71-227.49,1716.64Zm107.54-175.4q19.5-4.24,39-8.2c27.56-5.58,46.24-13,56.1-22.84s13.26-23.82,10.07-42.11c-3.48-20-11.25-33.14-23.4-39.29S-70,1422.08-97,1427.5q-22.81,4.59-45.58,9.54Q-131.28,1489.14-119.95,1541.24Z" transform="translate(910.91 -1305.91)"/><path class="cls-1" d="M427.39,1580c.59,31.06,6.2,52.72,16.61,65.08s27.68,18.44,52,18.6c28.8.2,49.58-5.37,62.61-17.29s20.17-31.85,21.24-60q3.44-91.18,6.88-182.39.9-23.7-5.76-29.23c-4.44-3.67-14.92-5.81-31.41-6.22q-12-.28-24-.49l.93-56.82q111.54,1.82,222.81,12-2.58,28.29-5.18,56.6-10.78-1-21.58-1.9c-16.44-1.37-27.16-.33-32.09,2.92s-7.91,12.12-8.93,26.53q-6.84,96.88-13.69,193.76c-3.07,42.89-21.93,74.16-55.38,94.78s-80.5,29.92-142.15,30.08c-56,.19-99.61-9-131.94-29.36s-50.42-50.13-53.35-90.29l-14.16-196.95q-1.65-22.79-9.24-28c-5.07-3.43-16-4.54-32.64-3.12q-12,1-24,2.15l-5.31-56.59q144.5-13.55,289.68-13-.12,28.42-.22,56.84-13.05,0-26.11,0c-16.95.09-27.76,2.17-32.37,6s-6.78,13.45-6.5,28.69Q425.75,1491.25,427.39,1580Z" transform="translate(910.91 -1305.91)"/><path class="cls-1" d="M1192.43,1652.64c-15.83,51.59-44.5,86.62-84.71,106.47s-89.59,23.13-149.8,11.63c-70.51-13.39-122.07-39.07-156.67-80.52s-49.58-95.51-42.75-163.58c6.46-64.26,33.54-113.81,83.8-146.76s115.17-43.35,192-28.82a329.15,329.15,0,0,1,70.4,21.25,259.61,259.61,0,0,1,58.25,35q8.54-9.42,17.17-18.78,38.28,9.27,76.37,19.56l-43.26,160.08q-39.69-10.73-79.59-20.27c1.22-39.47-4.52-69.69-17.21-90.47s-33.33-34.26-61.61-39.94c-32.82-6.58-59,.9-77.9,21.87s-32.52,57.71-41.21,109.91c-9,54-8.27,94,1.57,120.06s30.08,41.93,61.05,48.19c28.14,5.7,53.14,1.31,75.67-13.45s39-37.68,49.13-69.2Q1157.88,1643.28,1192.43,1652.64Z" transform="translate(910.91 -1305.91)"/><path class="cls-1" d="M1246.74,1621c18.35-63.94,55.61-107.91,114.13-129.26,58.32-21.28,131-17.09,214,15.63,82.59,32.62,138.93,79.3,167.5,134.91,28.69,55.8,26.27,113.57-4,172.8s-74.73,95-131.15,109.72c-56.6,14.78-118.74,7-190-21.06-70.52-27.73-120.16-64.23-150.72-113.66C1236.1,1740.77,1228.47,1684.68,1246.74,1621Zm305.68-56.67c-30.23-11.92-56.66-8.94-78.59,8.49s-41.65,51.23-59.47,101.06c-18.15,50.77-24.84,89.74-20.61,116.87s19.66,45.67,46.52,56.25c27.23,10.74,51.34,7.93,73-8.8s43.14-49.32,64.21-98.09c21.22-49.12,30.1-87.65,26.08-115.65S1582.43,1576.15,1552.42,1564.3Z" transform="translate(910.91 -1305.91)"/><path class="cls-2" d="M-737.26,1625.65c-24.12,10.74-39.38,26.08-45.63,45.52s-3.06,42.06,9.27,67.76l.76,1.59q-31.18,14.93-62.08,30.68l-69.16-135.74a2977.59,2977.59,0,0,1,477.5-193.33l44.73,145.63q-32.26,9.9-64.34,20.61c-.18-.56-.37-1.11-.55-1.67-8.95-26.86-22.31-45.29-40.33-55s-39.64-10.21-64.48-1.14q-9.81,3.57-19.59,7.23L-484.52,1790q8.1,21.69,16.29,24.74c5.47,2,15.35.4,29.74-4.75q17-6.07,34.06-11.92,9.26,27,18.5,54A2576.72,2576.72,0,0,0-644.3,1956.46q-12.12-25.86-24.23-51.74,15.36-7.18,30.79-14.18c13.26-6,21.39-11.33,24.35-16.15s1.12-14.83-5.52-30.05q-49.56-113.58-99.13-227.17Q-727.67,1621.39-737.26,1625.65Z" transform="translate(910.91 -1305.91)"/><path class="cls-3" d="M-257.49,1716.64l-58.11-211.9q-6.19-22.6-14.3-26c-5.4-2.24-16.25-1.13-32.46,3.55q-11.5,3.32-23,6.73-8.1-27.24-16.21-54.47a2974.72,2974.72,0,0,1,324.28-77c57.93-10.34,102.67-8.26,133.24,4.37s47.6,36,51.54,69.37c2.67,22.51-3.58,42.4-18.31,59.83s-36.71,31-66,41.25c30.86-1.37,52.55,4.19,64.93,16.05s21.49,41.6,27.42,89.08q2.69,21.51,7.59,29.31c3.26,5.21,7.85,7.45,13.81,6.74q8.63-1,11.63-11.67t.71-31.34q-.22-2-1.07-6.66c-.56-3.08-.92-5.4-1.1-6.95q21.87-2.46,43.78-4.56.24,2.63,1.08,8t1.08,8c3.56,37.34-2,65.16-16.2,83.63s-38.73,29.65-73.87,34.4c-37.34,5.08-65.59,2-85.31-10.14s-32.65-34.36-38.52-67.06L-26.73,1636q-7.1-39.8-20.7-48.51c-9.07-5.77-25.94-6.41-50.42-1.48q-19.65,4-39.24,8.22l19.14,88.18q5,22.92,12.41,27c4.94,2.74,14.6,2.56,29-.38q11.9-2.41,23.8-4.72l10.86,56.09q-123.48,23.91-244.87,60l-16.3-54.76q10.33-3.08,20.7-6.07c14.41-4.15,23.19-8.5,26.32-13.22S-253.35,1731.71-257.49,1716.64Zm107.54-175.4q19.5-4.24,39-8.2c27.56-5.58,46.24-13,56.1-22.84s13.26-23.82,10.07-42.11c-3.48-20-11.25-33.14-23.4-39.29s-31.84-6.72-58.89-1.3q-22.81,4.59-45.58,9.54Q-161.28,1489.14-149.95,1541.24Z" transform="translate(910.91 -1305.91)"/><path class="cls-4" d="M397.39,1580c.59,31.06,6.2,52.72,16.61,65.08s27.68,18.44,52,18.6c28.8.2,49.58-5.37,62.61-17.29s20.17-31.85,21.24-60q3.44-91.18,6.88-182.39.9-23.7-5.76-29.23c-4.45-3.67-14.92-5.81-31.41-6.22q-12-.28-24-.49l.93-56.82q111.54,1.82,222.81,12-2.58,28.29-5.18,56.6-10.78-1-21.58-1.9c-16.44-1.37-27.16-.33-32.09,2.92s-7.91,12.12-8.93,26.53q-6.84,96.88-13.69,193.76c-3.07,42.89-21.93,74.16-55.38,94.78s-80.51,29.92-142.15,30.08c-56,.19-99.61-9-131.94-29.36s-50.42-50.13-53.35-90.29l-14.16-196.95q-1.65-22.79-9.24-28c-5.07-3.43-16-4.54-32.64-3.12q-12,1-24,2.15l-5.31-56.59q144.5-13.55,289.68-13-.12,28.42-.22,56.84-13.05,0-26.11,0c-16.95.09-27.75,2.17-32.37,6s-6.78,13.45-6.5,28.69Q395.75,1491.25,397.39,1580Z" transform="translate(910.91 -1305.91)"/><path class="cls-5" d="M1162.43,1652.64c-15.83,51.59-44.5,86.62-84.71,106.47s-89.59,23.13-149.8,11.63c-70.51-13.39-122.07-39.07-156.67-80.52s-49.58-95.51-42.75-163.58c6.46-64.26,33.54-113.81,83.8-146.76s115.17-43.35,192-28.82a329,329,0,0,1,70.4,21.25,259.61,259.61,0,0,1,58.25,35q8.54-9.42,17.17-18.78,38.28,9.27,76.37,19.56l-43.26,160.08q-39.69-10.73-79.59-20.27c1.22-39.47-4.52-69.69-17.21-90.47s-33.33-34.26-61.61-39.94c-32.82-6.58-59,.9-77.9,21.87s-32.51,57.71-41.21,109.91c-9,54-8.27,94,1.57,120.06s30.09,41.93,61.05,48.19c28.14,5.7,53.14,1.31,75.67-13.45s39-37.68,49.13-69.2Q1127.88,1643.28,1162.43,1652.64Z" transform="translate(910.91 -1305.91)"/><path class="cls-6" d="M1216.74,1621c18.35-63.94,55.61-107.91,114.13-129.26,58.32-21.28,131-17.09,214,15.63,82.59,32.62,138.93,79.3,167.5,134.91,28.69,55.8,26.28,113.57-4,172.8s-74.72,95-131.15,109.72c-56.6,14.78-118.74,7-190-21.06-70.52-27.73-120.16-64.23-150.72-113.66C1206.1,1740.77,1198.47,1684.68,1216.74,1621Zm305.68-56.67c-30.23-11.92-56.65-8.94-78.59,8.49s-41.65,51.23-59.47,101.06c-18.15,50.77-24.84,89.74-20.61,116.87s19.66,45.67,46.52,56.25c27.23,10.74,51.34,7.93,73-8.8s43.14-49.32,64.21-98.09c21.22-49.12,30.1-87.65,26.08-115.65S1552.43,1576.15,1522.42,1564.3Z" transform="translate(910.91 -1305.91)"/><path class="cls-7" d="M-738.58,1624.06c-24.15,10.72-39.45,26-45.74,45.48s-3.13,42.06,9.15,67.78c.26.53.51,1.06.76,1.59q-31.23,14.89-62.18,30.61l-68.94-135.86a2991.13,2991.13,0,0,1,478.1-192.83q22.31,72.84,44.59,145.67-32.31,9.9-64.43,20.57c-.18-.56-.37-1.11-.55-1.67-8.92-26.87-22.26-45.31-40.28-55.07s-39.65-10.24-64.53-1.2q-9.82,3.57-19.62,7.21,43.18,116.16,86.36,232.33,8.07,21.69,16.27,24.74c5.46,2,15.36.42,29.77-4.72q17-6.06,34.13-11.89l18.43,54.07A2587.88,2587.88,0,0,0-646.16,1955l-24.15-51.78q15.39-7.17,30.85-14.15c13.29-6,21.43-11.31,24.4-16.13s1.16-14.83-5.46-30.06q-49.4-113.65-98.81-227.31Q-729,1619.81-738.58,1624.06Z" transform="translate(910.91 -1305.91)"/><path class="cls-7" d="M-258.49,1715.48q-29-106-57.91-212-6.18-22.62-14.29-26c-5.41-2.25-16.26-1.14-32.49,3.52q-11.52,3.32-23,6.72-8.07-27.24-16.16-54.49a2987.59,2987.59,0,0,1,324.61-76.84c58-10.32,102.76-8.22,133.36,4.42s47.61,36.06,51.54,69.39c2.67,22.51-3.6,42.4-18.36,59.82s-36.77,31-66.06,41.24c30.89-1.37,52.61,4.21,65,16.06s21.48,41.62,27.39,89.1q2.7,21.51,7.59,29.31t13.82,6.74q8.64-1,11.65-11.67t.73-31.33c-.15-1.36-.51-3.58-1.06-6.66s-.92-5.4-1.1-7q21.9-2.45,43.83-4.55c.17,1.75.53,4.42,1.09,8s.91,6.24,1.08,8c3.54,37.34-2.05,65.16-16.27,83.63s-38.81,29.65-74,34.39c-37.4,5.07-65.68,2-85.42-10.17s-32.68-34.38-38.53-67.07l-5.91-33.17q-7.1-39.81-20.69-48.52c-9.08-5.77-26-6.42-50.48-1.5q-19.66,4-39.29,8.2l19.08,88.2q5,22.9,12.39,27c4.95,2.74,14.63,2.56,29.08-.37q11.91-2.4,23.83-4.71,5.41,28.05,10.82,56.1-123.67,23.87-245.28,59.88-8.13-27.39-16.24-54.78,10.35-3.06,20.73-6c14.43-4.15,23.23-8.49,26.37-13.22S-254.38,1730.56-258.49,1715.48Zm107.85-175.35q19.51-4.23,39.08-8.18c27.59-5.56,46.3-13,56.18-22.81s13.29-23.82,10.11-42.11c-3.47-20-11.23-33.15-23.39-39.3s-31.86-6.74-58.95-1.33q-22.85,4.57-45.63,9.51Q-161.93,1488-150.64,1540.13Z" transform="translate(910.91 -1305.91)"/><path class="cls-7" d="M397.33,1579c.59,31.06,6.2,52.72,16.62,65.08s27.72,18.44,52,18.6c28.84.2,49.66-5.37,62.7-17.29s20.19-31.85,21.26-60q3.43-91.2,6.86-182.39.9-23.71-5.77-29.23c-4.45-3.67-14.94-5.81-31.44-6.22q-12-.28-24.07-.49.47-28.41.92-56.83,111.63,1.82,223,12l-5.16,56.6q-10.8-1-21.6-1.89c-16.47-1.37-27.19-.34-32.13,2.92s-7.92,12.12-8.93,26.53q-6.81,96.88-13.64,193.76c-3.06,42.9-21.94,74.17-55.43,94.8s-80.62,29.93-142.36,30.08c-56.12.19-99.77-9-132.14-29.37s-50.48-50.13-53.39-90.29q-7.06-98.48-14.12-197-1.63-22.79-9.24-28c-5.07-3.43-16-4.54-32.67-3.12q-12,1-24,2.14-2.66-28.29-5.3-56.59,144.65-13.51,289.94-13-.12,28.42-.22,56.84-13.06,0-26.13,0c-17,.09-27.78,2.17-32.41,6s-6.79,13.45-6.5,28.68Z" transform="translate(910.91 -1305.91)"/><path class="cls-7" d="M1163.37,1651.47c-15.79,51.61-44.45,86.66-84.69,106.53s-89.69,23.18-150,11.7c-70.62-13.37-122.28-39-157-80.48s-49.69-95.5-42.89-163.57c6.44-64.26,33.52-113.82,83.81-146.79s115.24-43.38,192.18-28.89a329.78,329.78,0,0,1,70.47,21.21,259.57,259.57,0,0,1,58.32,34.92q8.55-9.42,17.17-18.79,38.33,9.24,76.45,19.51-21.56,80.07-43.12,160.12-39.72-10.7-79.69-20.22c1.18-39.47-4.59-69.69-17.31-90.46s-33.39-34.24-61.7-39.91c-32.86-6.57-59.06.93-78,21.91S915,1496,906.28,1548.19c-8.95,54-8.2,94,1.67,120s30.17,41.93,61.18,48.18c28.18,5.68,53.21,1.28,75.75-13.49s39-37.7,49.12-69.23Q1128.77,1642.13,1163.37,1651.47Z" transform="translate(910.91 -1305.91)"/><path class="cls-7" d="M1217.7,1619.77c18.28-64,55.53-108,114.06-129.36,58.34-21.32,131-17.21,214.19,15.43,82.69,32.54,139.14,79.15,167.83,134.73,28.81,55.77,26.51,113.55-3.67,172.84s-74.6,95.08-131,109.89c-56.63,14.85-118.86,7.17-190.25-20.88-70.64-27.69-120.42-64.16-151.08-113.57S1199.49,1683.49,1217.7,1619.77Zm305.86-56.94c-30.27-11.88-56.71-8.88-78.64,8.57s-41.61,51.28-59.37,101.13c-18.09,50.78-24.72,89.76-20.44,116.9s19.76,45.66,46.66,56.21c27.29,10.73,51.42,7.89,73-8.86s43.1-49.37,64.1-98.18c21.15-49.15,30-87.69,25.91-115.69S1553.6,1574.65,1523.56,1562.83Z" transform="translate(910.91 -1305.91)"/><rect class="cls-1" x="244.1" y="2863.89" width="418.11" height="418.11" transform="translate(-1129.27 -85.44) rotate(-45)"/><rect class="cls-8" x="219.46" y="2863.89" width="418.11" height="418.11" transform="translate(-1136.48 -102.86) rotate(-45)"/><rect class="cls-7" x="223.21" y="2867.63" width="410.62" height="410.62" transform="translate(-1136.48 -102.86) rotate(-45)"/><path class="cls-9" d="M1262.08,2579.33c0-83.06-66.18-150.4-147.82-150.4,0-83.06-66.19-150.39-147.83-150.39s-147.82,67.33-147.82,150.39c-81.64,0-147.82,67.34-147.82,150.4S737,2729.72,818.61,2729.72a145.32,145.32,0,0,0,81.08-24.64L806.2,2869.83h320.47l-93.5-164.75a145.32,145.32,0,0,0,81.09,24.64C1195.9,2729.72,1262.08,2662.39,1262.08,2579.33Z" transform="translate(910.91 -1305.91)"/><path class="cls-10" d="M1237.44,2579.33c0-83.06-66.18-150.4-147.82-150.4,0-83.06-66.18-150.39-147.82-150.39S794,2345.87,794,2428.93c-81.64,0-147.82,67.34-147.82,150.4S712.33,2729.72,794,2729.72a145.32,145.32,0,0,0,81.09-24.64l-93.5,164.75H1102l-93.5-164.75a145.37,145.37,0,0,0,81.09,24.64C1171.26,2729.72,1237.44,2662.39,1237.44,2579.33Z" transform="translate(910.91 -1305.91)"/><path class="cls-7" d="M1237.2,2579.23a147.7,147.7,0,0,0-147.7-147.7,147.7,147.7,0,0,0-295.4,0,147.7,147.7,0,1,0,81,271.21l-93.41,161.8h320.19l-93.41-161.8a147.72,147.72,0,0,0,228.72-123.51Z" transform="translate(910.91 -1305.91)"/><path class="cls-9" d="M699.92,2267.14c-2.52,2.79-5.09,5.46-7.72,8l.24.27L453.16,2541.57l-235.6-262-3.69-4.11.24-.27c-2.62-2.58-5.21-5.25-7.72-8-65.18-72.49-65.18-190,0-262.5s170.86-72.49,236,0c3.43,3.8,6.67,7.75,9.73,11.79l1,1.12,1-1.12c3.06-4,6.3-8,9.72-11.79,65.19-72.49,170.86-72.49,236,0S765.1,2194.65,699.92,2267.14Z" transform="translate(910.91 -1305.91)"/><path class="cls-11" d="M675.28,2267.14c-2.51,2.79-5.09,5.46-7.72,8l.24.27L428.52,2541.57l-235.6-262-3.69-4.11.24-.27c-2.62-2.58-5.21-5.25-7.72-8-65.17-72.49-65.17-190,0-262.5s170.86-72.49,236,0c3.42,3.8,6.66,7.75,9.72,11.79l1,1.12,1-1.12c3.07-4,6.3-8,9.72-11.79,65.19-72.49,170.86-72.49,236,0S740.46,2194.65,675.28,2267.14Z" transform="translate(910.91 -1305.91)"/><path class="cls-7" d="M675.28,2267.14c-2.51,2.79-5.09,5.46-7.72,8l.24.27L428.52,2541.57l-235.6-262-3.69-4.11.24-.27c-2.62-2.58-5.21-5.25-7.72-8-65.17-72.49-65.17-190,0-262.5s170.86-72.49,236,0c3.42,3.8,6.66,7.75,9.72,11.79l1,1.12,1-1.12c3.07-4,6.3-8,9.72-11.79,65.19-72.49,170.86-72.49,236,0S740.46,2194.65,675.28,2267.14Z" transform="translate(910.91 -1305.91)"/><path class="cls-9" d="M175.21,2697.41c65.18-58.39,65.18-153,0-211.45-2.51-2.25-5.09-4.4-7.72-6.48l.24-.22L164,2476l-235.6-211.05-239.28,214.35.25.22c-2.63,2.08-5.21,4.23-7.73,6.48-65.18,58.4-65.18,153.06,0,211.45,46.29,41.47,113,53.47,171.13,36L-226.3,2856.2H83.19L4.08,2733.45C62.21,2750.89,128.92,2738.88,175.21,2697.41Z" transform="translate(910.91 -1305.91)"/><path class="cls-12" d="M150.57,2697.41c65.18-58.39,65.18-153,0-211.45-2.51-2.25-5.09-4.4-7.71-6.48l.24-.22-3.7-3.3L-96.19,2264.91l-239.29,214.35.25.22c-2.63,2.08-5.21,4.23-7.73,6.48-65.17,58.4-65.17,153.06,0,211.45,46.29,41.47,113,53.47,171.14,36l-79.11,122.75H58.55l-79.11-122.75C37.57,2750.89,104.28,2738.88,150.57,2697.41Z" transform="translate(910.91 -1305.91)"/><path class="cls-7" d="M150.57,2697.41c65.18-58.39,65.18-153,0-211.45-2.51-2.25-5.09-4.4-7.71-6.48l.24-.22-3.7-3.3L-96.19,2264.91l-239.29,214.35.25.22c-2.63,2.08-5.21,4.23-7.73,6.48-65.17,58.4-65.17,153.06,0,211.45,46.29,41.47,113,53.47,171.14,36l-79.11,122.75H58.55l-79.11-122.75C37.57,2750.89,104.28,2738.88,150.57,2697.41Z" transform="translate(910.91 -1305.91)"/></svg>